  0
SECTION
  2
HEADER
  9
$ACADVER
  1
AC1009
  9
$DWGCODEPAGE
  3
mac-roman
  9
$INSBASE
 10
0.0
 20
0.0
 30
0.0
  9
$EXTMIN
 10
1.965500556638176
 20
3.481789207437799
 30
0.0
  9
$EXTMAX
 10
635.4448358333334
 20
333.6817892074371
 30
0.0
  9
$LIMMIN
 10
0.0
 20
0.0
  9
$LIMMAX
 10
12.0
 20
9.0
  9
$ORTHOMODE
 70
     0
  9
$REGENMODE
 70
     1
  9
$FILLMODE
 70
     1
  9
$QTEXTMODE
 70
     0
  9
$MIRRTEXT
 70
     1
  9
$DRAGMODE
 70
     2
  9
$LTSCALE
 40
1.0
  9
$OSMODE
 70
    37
  9
$ATTMODE
 70
     1
  9
$TEXTSIZE
 40
0.2
  9
$TRACEWID
 40
0.05
  9
$TEXTSTYLE
  7
STANDARD
  9
$CLAYER
  8
CUTTING_LINES
  9
$CELTYPE
  6
BYLAYER
  9
$CECOLOR
 62
   256
  9
$DIMSCALE
 40
1.0
  9
$DIMASZ
 40
0.18
  9
$DIMEXO
 40
0.0625
  9
$DIMDLI
 40
0.38
  9
$DIMRND
 40
0.0
  9
$DIMDLE
 40
0.0
  9
$DIMEXE
 40
0.18
  9
$DIMTP
 40
0.0
  9
$DIMTM
 40
0.0
  9
$DIMTXT
 40
0.18
  9
$DIMCEN
 40
0.09
  9
$DIMTSZ
 40
0.0
  9
$DIMTOL
 70
     0
  9
$DIMLIM
 70
     0
  9
$DIMTIH
 70
     1
  9
$DIMTOH
 70
     1
  9
$DIMSE1
 70
     0
  9
$DIMSE2
 70
     0
  9
$DIMTAD
 70
     0
  9
$DIMZIN
 70
     0
  9
$DIMBLK
  1

  9
$DIMASO
 70
     1
  9
$DIMSHO
 70
     1
  9
$DIMPOST
  1

  9
$DIMAPOST
  1

  9
$DIMALT
 70
     0
  9
$DIMALTD
 70
     2
  9
$DIMALTF
 40
25.4
  9
$DIMLFAC
 40
1.0
  9
$DIMTOFL
 70
     0
  9
$DIMTVP
 40
0.0
  9
$DIMTIX
 70
     0
  9
$DIMSOXD
 70
     0
  9
$DIMSAH
 70
     0
  9
$DIMBLK1
  1

  9
$DIMBLK2
  1

  9
$DIMSTYLE
  2
STANDARD
  9
$DIMCLRD
 70
     0
  9
$DIMCLRE
 70
     0
  9
$DIMCLRT
 70
     0
  9
$DIMTFAC
 40
1.0
  9
$DIMGAP
 40
0.09
  9
$LUNITS
 70
     2
  9
$LUPREC
 70
     4
  9
$SKETCHINC
 40
0.1
  9
$FILLETRAD
 40
0.5
  9
$AUNITS
 70
     0
  9
$AUPREC
 70
     0
  9
$MENU
  1
.
  9
$ELEVATION
 40
0.0
  9
$PELEVATION
 40
0.0
  9
$THICKNESS
 40
0.0
  9
$LIMCHECK
 70
     0
  9
$CHAMFERA
 40
0.0
  9
$CHAMFERB
 40
0.0
  9
$SKPOLY
 70
     0
  9
$TDCREATE
 40
2457801.441655092
  9
$TDUPDATE
 40
2457801.441666667
  9
$TDINDWG
 40
0.0000000116
  9
$TDUSRTIMER
 40
0.0000000116
  9
$USRTIMER
 70
     1
  9
$ANGBASE
 50
0.0
  9
$ANGDIR
 70
     0
  9
$PDMODE
 70
     0
  9
$PDSIZE
 40
0.0
  9
$PLINEWID
 40
0.0
  9
$COORDS
 70
     1
  9
$SPLFRAME
 70
     0
  9
$SPLINETYPE
 70
     6
  9
$SPLINESEGS
 70
     8
  9
$ATTDIA
 70
     0
  9
$ATTREQ
 70
     1
  9
$HANDLING
 70
     1
  9
$HANDSEED
  5
2E9
  9
$SURFTAB1
 70
     6
  9
$SURFTAB2
 70
     6
  9
$SURFTYPE
 70
     6
  9
$SURFU
 70
     6
  9
$SURFV
 70
     6
  9
$UCSNAME
  2

  9
$UCSORG
 10
0.0
 20
0.0
 30
0.0
  9
$UCSXDIR
 10
1.0
 20
0.0
 30
0.0
  9
$UCSYDIR
 10
0.0
 20
1.0
 30
0.0
  9
$PUCSNAME
  2

  9
$PUCSORG
 10
0.0
 20
0.0
 30
0.0
  9
$PUCSXDIR
 10
1.0
 20
0.0
 30
0.0
  9
$PUCSYDIR
 10
0.0
 20
1.0
 30
0.0
  9
$USERI1
 70
     0
  9
$USERI2
 70
     0
  9
$USERI3
 70
     0
  9
$USERI4
 70
     0
  9
$USERI5
 70
     0
  9
$USERR1
 40
0.0
  9
$USERR2
 40
0.0
  9
$USERR3
 40
0.0
  9
$USERR4
 40
0.0
  9
$USERR5
 40
0.0
  9
$WORLDVIEW
 70
     1
  9
$SHADEDGE
 70
     3
  9
$SHADEDIF
 70
    70
  9
$TILEMODE
 70
     1
  9
$MAXACTVP
 70
    64
  9
$PLIMCHECK
 70
     0
  9
$PEXTMIN
 10
1.000000000000000E+20
 20
1.000000000000000E+20
 30
1.000000000000000E+20
  9
$PEXTMAX
 10
-1.000000000000000E+20
 20
-1.000000000000000E+20
 30
-1.000000000000000E+20
  9
$PLIMMIN
 10
0.0
 20
0.0
  9
$PLIMMAX
 10
12.0
 20
9.0
  9
$UNITMODE
 70
     0
  9
$VISRETAIN
 70
     1
  9
$PLINEGEN
 70
     0
  9
$PSLTSCALE
 70
     1
  0
ENDSEC
  0
SECTION
  2
TABLES
  0
TABLE
  2
VPORT
 70
     1
  0
VPORT
  2
*ACTIVE
 70
     0
 10
0.0
 20
0.0
 11
1.0
 21
1.0
 12
318.7051681949858
 22
168.5817892074375
 13
0.0
 23
0.0
 14
0.5
 24
0.5
 15
0.5
 25
0.5
 16
0.0
 26
0.0
 36
1.0
 17
0.0
 27
0.0
 37
0.0
 40
336.8039999999993
 41
1.918471639238935
 42
50.0
 43
0.0
 44
0.0
 50
0.0
 51
0.0
 71
     0
 72
   100
 73
     1
 74
     3
 75
     0
 76
     0
 77
     0
 78
     0
  0
ENDTAB
  0
TABLE
  2
LTYPE
 70
     1
  0
LTYPE
  2
CONTINUOUS
 70
     0
  3
Solid line
 72
    65
 73
     0
 40
0.0
  0
ENDTAB
  0
TABLE
  2
LAYER
 70
     2
  0
LAYER
  2
0
 70
     0
 62
     7
  6
CONTINUOUS
  0
LAYER
  2
CUTTING_LINES
 70
     0
 62
     5
  6
CONTINUOUS
  0
ENDTAB
  0
TABLE
  2
STYLE
 70
     1
  0
STYLE
  2
STANDARD
 70
     0
 40
0.0
 41
1.0
 50
0.0
 71
     0
 42
0.2
  3
txt
  4

  0
ENDTAB
  0
TABLE
  2
VIEW
 70
     0
  0
ENDTAB
  0
TABLE
  2
UCS
 70
     0
  0
ENDTAB
  0
TABLE
  2
APPID
 70
     1
  0
APPID
  2
ACAD
 70
     0
  0
ENDTAB
  0
TABLE
  2
DIMSTYLE
 70
     1
  0
DIMSTYLE
  2
STANDARD
 70
     0
  3

  4

  5

  6

  7

 40
1.0
 41
0.18
 42
0.0625
 43
0.38
 44
0.18
 45
0.0
 46
0.0
 47
0.0
 48
0.0
140
0.18
141
0.09
142
0.0
143
25.4
144
1.0
145
0.0
146
1.0
147
0.09
 71
     0
 72
     0
 73
     1
 74
     1
 75
     0
 76
     0
 77
     0
 78
     0
170
     0
171
     2
172
     0
173
     0
174
     0
175
     0
176
     0
177
     0
178
     0
  0
ENDTAB
  0
ENDSEC
  0
SECTION
  2
BLOCKS
  0
BLOCK
  8
0
  2
$MODEL_SPACE
 70
     0
 10
0.0
 20
0.0
 30
0.0
  3
$MODEL_SPACE
  1

  0
ENDBLK
  5
21
  8
0
  0
BLOCK
 67
     1
  8
0
  2
$PAPER_SPACE
 70
     0
 10
0.0
 20
0.0
 30
0.0
  3
$PAPER_SPACE
  1

  0
ENDBLK
  5
1D
 67
     1
  8
0
  0
ENDSEC
  0
SECTION
  2
ENTITIES
  0
CIRCLE
  5
6F
  8
CUTTING_LINES
 10
491.9674431596819
 20
156.8456599481405
 30
0.0
 40
1.587499999999977
  0
CIRCLE
  5
70
  8
CUTTING_LINES
 10
488.1249756964309
 20
156.8457325604012
 30
0.0
 40
147.3198601369026
  0
CIRCLE
  5
71
  8
CUTTING_LINES
 10
318.3779829578535
 20
285.9999823611115
 30
0.0
 40
1.926642868076298
  0
CIRCLE
  5
72
  8
CUTTING_LINES
 10
365.6219817643697
 20
285.9999823611115
 30
0.0
 40
1.926642868076298
  0
CIRCLE
  5
73
  8
CUTTING_LINES
 10
326.4999884545368
 20
270.5000197787916
 30
0.0
 40
1.699986075664949
  0
CIRCLE
  5
74
  8
CUTTING_LINES
 10
357.4999968306595
 20
301.4999995084474
 30
0.0
 40
1.700000790389942
  0
CIRCLE
  5
75
  8
CUTTING_LINES
 10
342.0
 20
286.0000000000001
 30
0.0
 40
16.50999958292226
  0
CIRCLE
  5
76
  8
CUTTING_LINES
 10
326.4999884545369
 20
301.5000142232281
 30
0.0
 40
1.699986075672837
  0
CIRCLE
  5
77
  8
CUTTING_LINES
 10
357.4999968306595
 20
270.5000050640041
 30
0.0
 40
1.700000790388832
  0
CIRCLE
  5
78
  8
CUTTING_LINES
 10
341.9999823611116
 20
309.6219817643697
 30
0.0
 40
1.926642868076298
  0
CIRCLE
  5
79
  8
CUTTING_LINES
 10
341.9999823611117
 20
262.3779829578535
 30
0.0
 40
1.926642868076355
  0
LINE
  5
7A
  8
CUTTING_LINES
 10
315.2030006769492
 20
259.2030006769492
 30
0.0
 11
368.7969993230508
 21
259.2030006769492
 31
0.0
  0
LINE
  5
7B
  8
CUTTING_LINES
 10
315.2030006769492
 20
312.7969993230508
 30
0.0
 11
315.2030006769492
 21
259.2030006769492
 31
0.0
  0
LINE
  5
7C
  8
CUTTING_LINES
 10
368.7969993230508
 20
312.7969993230508
 30
0.0
 11
315.2030006769492
 21
312.7969993230508
 31
0.0
  0
LINE
  5
7D
  8
CUTTING_LINES
 10
368.7969993230508
 20
259.2030006769492
 30
0.0
 11
368.7969993230508
 21
312.7969993230508
 31
0.0
  0
LINE
  5
7E
  8
CUTTING_LINES
 10
308.2030183158376
 20
42.49016677068037
 30
0.0
 11
308.2030183158376
 21
67.50983322931963
 31
0.0
  0
LINE
  5
7F
  8
CUTTING_LINES
 10
308.2030183158376
 20
42.49016677068037
 30
0.0
 11
361.7969816841625
 21
42.49016677068037
 31
0.0
  0
LINE
  5
80
  8
CUTTING_LINES
 10
361.7969816841625
 20
42.49016677068037
 30
0.0
 11
361.7969816841625
 21
67.50983322931963
 31
0.0
  0
LINE
  5
81
  8
CUTTING_LINES
 10
336.6994539848459
 20
67.50983322931963
 30
0.0
 11
361.7969816841625
 21
67.50983322931963
 31
0.0
  0
LINE
  5
82
  8
CUTTING_LINES
 10
336.6994539848459
 20
67.50983322931963
 30
0.0
 11
336.6994539848459
 21
64.70997718893888
 31
0.0
  0
LINE
  5
83
  8
CUTTING_LINES
 10
336.6994539848459
 20
64.70997718893888
 30
0.0
 11
337.7495322916521
 21
64.70997718893888
 31
0.0
  0
LINE
  5
84
  8
CUTTING_LINES
 10
337.7495322916521
 20
64.70997718893888
 30
0.0
 11
337.7495322916521
 21
62.31013586067506
 31
0.0
  0
LINE
  5
85
  8
CUTTING_LINES
 10
337.7495322916521
 20
62.31013586067506
 30
0.0
 11
336.6994539848459
 21
62.31013586067506
 31
0.0
  0
LINE
  5
86
  8
CUTTING_LINES
 10
336.6994539848459
 20
62.31013586067506
 30
0.0
 11
336.6994539848459
 21
59.50996232030231
 31
0.0
  0
LINE
  5
87
  8
CUTTING_LINES
 10
333.2998404596163
 20
59.50996232030231
 30
0.0
 11
336.6994539848459
 21
59.50996232030231
 31
0.0
  0
LINE
  5
88
  8
CUTTING_LINES
 10
333.2998404596163
 20
62.31013586067506
 30
0.0
 11
333.2998404596163
 21
59.50996232030231
 31
0.0
  0
LINE
  5
89
  8
CUTTING_LINES
 10
332.2497621528102
 20
62.31013586067506
 30
0.0
 11
333.2998404596163
 21
62.31013586067506
 31
0.0
  0
LINE
  5
8A
  8
CUTTING_LINES
 10
332.2497621528102
 20
64.70997718893888
 30
0.0
 11
332.2497621528102
 21
62.31013586067506
 31
0.0
  0
LINE
  5
8B
  8
CUTTING_LINES
 10
333.2998404596163
 20
64.70997718893888
 30
0.0
 11
332.2497621528102
 21
64.70997718893888
 31
0.0
  0
LINE
  5
8C
  8
CUTTING_LINES
 10
333.2998404596163
 20
67.50983322931963
 30
0.0
 11
333.2998404596163
 21
64.70997718893888
 31
0.0
  0
LINE
  5
8D
  8
CUTTING_LINES
 10
308.2030183158376
 20
67.50983322931963
 30
0.0
 11
333.2998404596163
 21
67.50983322931963
 31
0.0
  0
LINE
  5
8E
  8
CUTTING_LINES
 10
324.0348324668071
 20
3.489912222635468
 30
0.0
 11
324.0348324668071
 21
36.51008777736456
 31
0.0
  0
LINE
  5
8F
  8
CUTTING_LINES
 10
303.6998046471799
 20
3.489912222635468
 30
0.0
 11
324.0348324668071
 21
3.489912222635468
 31
0.0
  0
LINE
  5
90
  8
CUTTING_LINES
 10
303.6998046471799
 20
5.989660215042079
 30
0.0
 11
303.6998046471799
 21
3.489912222635468
 31
0.0
  0
LINE
  5
91
  8
CUTTING_LINES
 10
304.7498829539859
 20
5.989660215042079
 30
0.0
 11
303.6998046471799
 21
5.989660215042079
 31
0.0
  0
LINE
  5
92
  8
CUTTING_LINES
 10
304.7498829539859
 20
8.989999861469357
 30
0.0
 11
304.7498829539859
 21
5.989660215042079
 31
0.0
  0
LINE
  5
93
  8
CUTTING_LINES
 10
303.6998046471799
 20
8.989999861469357
 30
0.0
 11
304.7498829539859
 21
8.989999861469357
 31
0.0
  0
LINE
  5
94
  8
CUTTING_LINES
 10
303.6998046471799
 20
11.49010063164479
 30
0.0
 11
303.6998046471799
 21
8.989999861469357
 31
0.0
  0
LINE
  5
95
  8
CUTTING_LINES
 10
300.3001911219501
 20
11.49010063164479
 30
0.0
 11
303.6998046471799
 21
11.49010063164479
 31
0.0
  0
LINE
  5
96
  8
CUTTING_LINES
 10
300.3001911219501
 20
8.989999861469357
 30
0.0
 11
300.3001911219501
 21
11.49010063164479
 31
0.0
  0
LINE
  5
97
  8
CUTTING_LINES
 10
299.2501480929209
 20
8.989999861469357
 30
0.0
 11
300.3001911219501
 21
8.989999861469357
 31
0.0
  0
LINE
  5
98
  8
CUTTING_LINES
 10
299.2501480929209
 20
5.989660215042079
 30
0.0
 11
299.2501480929209
 21
8.989999861469357
 31
0.0
  0
LINE
  5
99
  8
CUTTING_LINES
 10
300.3001911219501
 20
5.989660215042079
 30
0.0
 11
299.2501480929209
 21
5.989660215042079
 31
0.0
  0
LINE
  5
9A
  8
CUTTING_LINES
 10
300.3001911219501
 20
3.489912222635468
 30
0.0
 11
300.3001911219501
 21
5.989660215042079
 31
0.0
  0
LINE
  5
9B
  8
CUTTING_LINES
 10
279.9651675331929
 20
3.489912222635468
 30
0.0
 11
300.3001911219501
 21
3.489912222635468
 31
0.0
  0
LINE
  5
9C
  8
CUTTING_LINES
 10
279.9651675331929
 20
36.51008777736456
 30
0.0
 11
279.9651675331929
 21
3.489912222635468
 31
0.0
  0
LINE
  5
9D
  8
CUTTING_LINES
 10
300.3001911219501
 20
36.51008777736456
 30
0.0
 11
279.9651675331929
 21
36.51008777736456
 31
0.0
  0
LINE
  5
9E
  8
CUTTING_LINES
 10
300.3001911219501
 20
34.01033978495792
 30
0.0
 11
300.3001911219501
 21
36.51008777736456
 31
0.0
  0
LINE
  5
9F
  8
CUTTING_LINES
 10
299.2501480929209
 20
34.01033978495792
 30
0.0
 11
300.3001911219501
 21
34.01033978495792
 31
0.0
  0
LINE
  5
A0
  8
CUTTING_LINES
 10
299.2501480929209
 20
31.01035291629952
 30
0.0
 11
299.2501480929209
 21
34.01033978495792
 31
0.0
  0
LINE
  5
A1
  8
CUTTING_LINES
 10
300.3001911219501
 20
31.01035291629952
 30
0.0
 11
299.2501480929209
 21
31.01035291629952
 31
0.0
  0
LINE
  5
A2
  8
CUTTING_LINES
 10
300.3001911219501
 20
28.51025214612406
 30
0.0
 11
300.3001911219501
 21
31.01035291629952
 31
0.0
  0
LINE
  5
A3
  8
CUTTING_LINES
 10
303.6998046471799
 20
28.51025214612406
 30
0.0
 11
300.3001911219501
 21
28.51025214612406
 31
0.0
  0
LINE
  5
A4
  8
CUTTING_LINES
 10
303.6998046471799
 20
31.01035291629952
 30
0.0
 11
303.6998046471799
 21
28.51025214612406
 31
0.0
  0
LINE
  5
A5
  8
CUTTING_LINES
 10
304.7498829539859
 20
31.01035291629952
 30
0.0
 11
303.6998046471799
 21
31.01035291629952
 31
0.0
  0
LINE
  5
A6
  8
CUTTING_LINES
 10
304.7498829539859
 20
34.01033978495792
 30
0.0
 11
304.7498829539859
 21
31.01035291629952
 31
0.0
  0
LINE
  5
A7
  8
CUTTING_LINES
 10
303.6998046471799
 20
34.01033978495792
 30
0.0
 11
304.7498829539859
 21
34.01033978495792
 31
0.0
  0
LINE
  5
A8
  8
CUTTING_LINES
 10
303.6998046471799
 20
36.51008777736456
 30
0.0
 11
303.6998046471799
 21
34.01033978495792
 31
0.0
  0
LINE
  5
A9
  8
CUTTING_LINES
 10
324.0348324668071
 20
36.51008777736456
 30
0.0
 11
303.6998046471799
 21
36.51008777736456
 31
0.0
  0
ARC
  5
AA
  8
CUTTING_LINES
 10
167.1986190795901
 20
168.5817892074375
 30
0.0
 40
165.0999999999997
 50
334.7565173439
 51
325.2434826560999
  0
ARC
  5
AB
  8
CUTTING_LINES
 10
74.02450361971009
 20
90.93750137465787
 30
0.0
 40
10.15999999999958
 50
39.80527771969819
 51
125.0000000000021
  0
ARC
  5
AC
  8
CUTTING_LINES
 10
167.1986190795881
 20
168.5817892074349
 30
0.0
 40
111.1249999999975
 50
219.8052777196994
 51
260.1947222803008
  0
ARC
  5
AD
  8
CUTTING_LINES
 10
146.5437510879097
 20
49.06849432797751
 30
0.0
 40
10.16000000000019
 50
355.0000000000014
 51
80.1947222802984
  0
ARC
  5
AE
  8
CUTTING_LINES
 10
144.9893579787707
 20
31.30169980575667
 30
0.0
 40
10.15999999999931
 50
260.8102740946955
 51
355.0000000000036
  0
ARC
  5
AF
  8
CUTTING_LINES
 10
167.1986190795909
 20
168.5817892074385
 30
0.0
 40
149.225000000001
 50
219.1897259053
 51
260.8102740946997
  0
ARC
  5
B0
  8
CUTTING_LINES
 10
59.41520477385373
 20
80.70796019547684
 30
0.0
 40
10.16000000000267
 50
125.0000000000158
 51
219.1897259052847
  0
ARC
  5
B1
  8
CUTTING_LINES
 10
274.9820333853314
 20
256.4556182193972
 30
0.0
 40
10.15999999999906
 50
304.9999999999951
 51
39.18972590530748
  0
ARC
  5
B2
  8
CUTTING_LINES
 10
260.3727345394698
 20
246.2260770402176
 30
0.0
 40
10.16000000000011
 50
219.8052777197005
 51
304.9999999999995
  0
ARC
  5
B3
  8
CUTTING_LINES
 10
167.1986190795908
 20
168.5817892074395
 30
0.0
 40
111.1249999999991
 50
39.80527771969947
 51
80.19472228030027
  0
ARC
  5
B4
  8
CUTTING_LINES
 10
187.8534870712695
 20
288.0950840868969
 30
0.0
 40
10.15999999999944
 50
174.9999999999967
 51
260.1947222803004
  0
ARC
  5
B5
  8
CUTTING_LINES
 10
189.40788018041
 20
305.8618786091175
 30
0.0
 40
10.16000000000015
 50
80.8102740946984
 51
175.0
  0
ARC
  5
B6
  8
CUTTING_LINES
 10
167.1986190795913
 20
168.58178920744
 30
0.0
 40
149.2249999999974
 50
39.18972590529961
 51
80.81027409470026
  0
LINE
  5
B7
  8
CUTTING_LINES
 10
297.8308070780898
 20
93.16126030279729
 30
0.0
 11
302.8418231291903
 21
74.4598937990777
 31
0.0
  0
LINE
  5
B8
  8
CUTTING_LINES
 10
297.8308070780898
 20
93.16126030279729
 30
0.0
 11
316.5321735792702
 21
98.17227635389781
 31
0.0
  0
LINE
  5
B9
  8
CUTTING_LINES
 10
155.11069611299
 20
30.41619745941742
 30
0.0
 11
156.66508921959
 21
48.1829919816378
 31
0.0
  0
LINE
  5
BA
  8
CUTTING_LINES
 10
68.19696702486996
 20
99.26008614423753
 30
0.0
 11
53.58766817901017
 21
89.03054496505766
 31
0.0
  0
LINE
  5
BB
  8
CUTTING_LINES
 10
266.2002711343101
 20
237.9034922706376
 30
0.0
 11
280.8095699801698
 21
248.1330334498175
 31
0.0
  0
LINE
  5
BC
  8
CUTTING_LINES
 10
179.2865420461903
 20
306.7473809554575
 30
0.0
 11
177.7321489395897
 21
288.9805864332374
 31
0.0
  0
CIRCLE
  5
BD
  8
CUTTING_LINES
 10
303.5976201418498
 20
247.3317891874373
 30
0.0
 40
4.76250000002176
  0
CIRCLE
  5
BE
  8
CUTTING_LINES
 10
167.19861907959
 20
11.08178924743732
 30
0.0
 40
4.762500000021674
  0
CIRCLE
  5
BF
  8
CUTTING_LINES
 10
30.79961801732995
 20
247.3317891874375
 30
0.0
 40
4.762500000021618
  0
CIRCLE
  5
C0
  8
CUTTING_LINES
 10
117.5179190558701
 20
130.9002798131771
 30
0.0
 40
1.587500000000048
  0
CIRCLE
  5
C1
  8
CUTTING_LINES
 10
156.1161462102901
 20
167.2743703262174
 30
0.0
 40
1.587499999999977
  0
CIRCLE
  5
C2
  8
CUTTING_LINES
 10
158.6773050427501
 20
105.6704275500975
 30
0.0
 40
1.587499999999977
  0
CIRCLE
  5
C3
  8
CUTTING_LINES
 10
180.3128959929703
 20
153.3043703262174
 30
0.0
 40
1.587500000000006
  0
CIRCLE
  5
C4
  8
CUTTING_LINES
 10
61.91393610353003
 20
202.0915931478179
 30
0.0
 40
1.930400000002351
  0
CIRCLE
  5
C5
  8
CUTTING_LINES
 10
85.42181479253011
 20
243.0719852940576
 30
0.0
 40
1.930400000008575
  0
CIRCLE
  5
C6
  8
CUTTING_LINES
 10
53.17767937490989
 20
234.3357285654373
 30
0.0
 40
1.930400000007943
  0
LINE
  5
C7
  8
CUTTING_LINES
 10
46.03449944336182
 20
36.51008777736455
 30
0.0
 11
25.69947162373421
 21
36.51008777736455
 31
0.0
  0
LINE
  5
C8
  8
CUTTING_LINES
 10
25.69947162373421
 20
36.51008777736455
 30
0.0
 11
25.69947162373421
 21
34.01033978495791
 31
0.0
  0
LINE
  5
C9
  8
CUTTING_LINES
 10
25.69947162373421
 20
34.01033978495791
 30
0.0
 11
26.74951465276365
 21
34.01033978495791
 31
0.0
  0
LINE
  5
CA
  8
CUTTING_LINES
 10
26.74951465276365
 20
34.01033978495791
 30
0.0
 11
26.74951465276365
 21
31.01000013853063
 31
0.0
  0
LINE
  5
CB
  8
CUTTING_LINES
 10
26.74951465276365
 20
31.01000013853063
 30
0.0
 11
25.69947162373421
 21
31.01000013853063
 31
0.0
  0
LINE
  5
CC
  8
CUTTING_LINES
 10
25.69947162373421
 20
31.01000013853063
 30
0.0
 11
25.69947162373421
 21
28.51025214612405
 31
0.0
  0
LINE
  5
CD
  8
CUTTING_LINES
 10
25.69947162373421
 20
28.51025214612405
 30
0.0
 11
22.29986570332824
 21
28.51025214612405
 31
0.0
  0
LINE
  5
CE
  8
CUTTING_LINES
 10
22.29986570332824
 20
28.51025214612405
 30
0.0
 11
22.29986570332824
 21
31.01000013853063
 31
0.0
  0
LINE
  5
CF
  8
CUTTING_LINES
 10
22.29986570332824
 20
31.01000013853063
 30
0.0
 11
21.24977979169853
 21
31.01000013853063
 31
0.0
  0
LINE
  5
D0
  8
CUTTING_LINES
 10
21.24977979169853
 20
31.01000013853063
 30
0.0
 11
21.24977979169853
 21
34.01033978495791
 31
0.0
  0
LINE
  5
D1
  8
CUTTING_LINES
 10
21.24977979169853
 20
34.01033978495791
 30
0.0
 11
22.29986570332824
 21
34.01033978495791
 31
0.0
  0
LINE
  5
D2
  8
CUTTING_LINES
 10
22.29986570332824
 20
34.01033978495791
 30
0.0
 11
22.29986570332824
 21
36.51008777736455
 31
0.0
  0
LINE
  5
D3
  8
CUTTING_LINES
 10
22.29986570332824
 20
36.51008777736455
 30
0.0
 11
1.965500556638176
 21
36.51008777736455
 31
0.0
  0
LINE
  5
D4
  8
CUTTING_LINES
 10
1.965500556638176
 20
36.51008777736455
 30
0.0
 11
1.965500556638176
 21
3.489912222635454
 31
0.0
  0
LINE
  5
D5
  8
CUTTING_LINES
 10
1.965500556638176
 20
3.489912222635454
 30
0.0
 11
22.29986570332824
 21
3.489912222635454
 31
0.0
  0
LINE
  5
D6
  8
CUTTING_LINES
 10
22.29986570332824
 20
3.489912222635454
 30
0.0
 11
22.29986570332824
 21
5.990012992810918
 31
0.0
  0
LINE
  5
D7
  8
CUTTING_LINES
 10
22.29986570332824
 20
5.990012992810918
 30
0.0
 11
21.24977979169853
 21
5.990012992810918
 31
0.0
  0
LINE
  5
D8
  8
CUTTING_LINES
 10
21.24977979169853
 20
5.990012992810918
 30
0.0
 11
21.24977979169853
 21
8.989999861469343
 31
0.0
  0
LINE
  5
D9
  8
CUTTING_LINES
 10
21.24977979169853
 20
8.989999861469343
 30
0.0
 11
22.29986570332824
 21
8.989999861469343
 31
0.0
  0
LINE
  5
DA
  8
CUTTING_LINES
 10
22.29986570332824
 20
8.989999861469343
 30
0.0
 11
22.29986570332824
 21
11.48974785387593
 31
0.0
  0
LINE
  5
DB
  8
CUTTING_LINES
 10
22.29986570332824
 20
11.48974785387593
 30
0.0
 11
25.69947162373421
 21
11.48974785387593
 31
0.0
  0
LINE
  5
DC
  8
CUTTING_LINES
 10
25.69947162373421
 20
11.48974785387593
 30
0.0
 11
25.69947162373421
 21
8.989999861469343
 31
0.0
  0
LINE
  5
DD
  8
CUTTING_LINES
 10
25.69947162373421
 20
8.989999861469343
 30
0.0
 11
26.74951465276365
 21
8.989999861469343
 31
0.0
  0
LINE
  5
DE
  8
CUTTING_LINES
 10
26.74951465276365
 20
8.989999861469343
 30
0.0
 11
26.74951465276365
 21
5.990012992810918
 31
0.0
  0
LINE
  5
DF
  8
CUTTING_LINES
 10
26.74951465276365
 20
5.990012992810918
 30
0.0
 11
25.69947162373421
 21
5.990012992810918
 31
0.0
  0
LINE
  5
E0
  8
CUTTING_LINES
 10
25.69947162373421
 20
5.990012992810918
 30
0.0
 11
25.69947162373421
 21
3.489912222635454
 31
0.0
  0
LINE
  5
E1
  8
CUTTING_LINES
 10
25.69947162373421
 20
3.489912222635454
 30
0.0
 11
46.03449944336182
 21
3.489912222635454
 31
0.0
  0
LINE
  5
E2
  8
CUTTING_LINES
 10
46.03449944336182
 20
3.489912222635454
 30
0.0
 11
46.03449944336182
 21
36.51008777736455
 31
0.0
  0
LINE
  5
E3
  8
CUTTING_LINES
 10
491.8959534093192
 20
274.7851312155812
 30
0.0
 11
490.5303153882626
 21
274.8209381591211
 31
0.0
  0
ARC
  5
E4
  8
CUTTING_LINES
 10
433.2044397000072
 20
256.9184192374468
 30
0.0
 40
60.05627533544036
 50
17.34326378111466
 51
21.92604921158064
  0
LINE
  5
E5
  8
CUTTING_LINES
 10
488.9166393179164
 20
279.3440077670809
 30
0.0
 11
487.3326027777779
 21
279.3440077670809
 31
0.0
  0
ARC
  5
E6
  8
CUTTING_LINES
 10
543.0422454523508
 20
256.9192529212642
 30
0.0
 40
60.05359203930748
 50
158.0737777125447
 51
162.6567700073563
  0
LINE
  5
E7
  8
CUTTING_LINES
 10
485.7189205098087
 20
274.8209381591211
 30
0.0
 11
484.353282488752
 21
274.7851312155812
 31
0.0
  0
ARC
  5
E8
  8
CUTTING_LINES
 10
427.9303981143401
 20
253.8460270392022
 30
0.0
 40
60.18295410527396
 50
20.36040034933632
 51
24.9339759429026
  0
LINE
  5
E9
  8
CUTTING_LINES
 10
482.5039508688035
 20
279.2175722147194
 30
0.0
 11
480.9226597976391
 21
279.1345636057053
 31
0.0
  0
ARC
  5
EA
  8
CUTTING_LINES
 10
537.67536309925
 20
259.6652332533718
 30
0.0
 40
59.99936796674594
 50
161.0651835992549
 51
165.652430805595
  0
LINE
  5
EB
  8
CUTTING_LINES
 10
479.5473556657155
 20
274.5332831663878
 30
0.0
 11
478.1858451445546
 21
274.4261445579833
 31
0.0
  0
ARC
  5
EC
  8
CUTTING_LINES
 10
423.230088480837
 20
250.7035437082295
 30
0.0
 40
59.85730516452003
 50
23.34827623579143
 51
27.94663568032025
  0
LINE
  5
ED
  8
CUTTING_LINES
 10
476.1071021415125
 20
278.7556097263896
 30
0.0
 11
474.5326902368411
 21
278.5902275083453
 31
0.0
  0
ARC
  5
EE
  8
CUTTING_LINES
 10
532.1560599800704
 20
262.1331561200212
 30
0.0
 40
59.92735551686985
 50
164.06080803556
 51
168.6537197880174
  0
LINE
  5
EF
  8
CUTTING_LINES
 10
473.3999208210128
 20
273.9231540151343
 30
0.0
 11
472.0453305555554
 21
273.7450416666667
 31
0.0
  0
ARC
  5
F0
  8
CUTTING_LINES
 10
418.4368745514262
 20
247.2009913445568
 30
0.0
 40
59.82017354245443
 50
26.34216091781586
 51
30.94316351525046
  0
LINE
  5
F1
  8
CUTTING_LINES
 10
469.7433086911644
 20
277.959778357605
 30
0.0
 11
468.1799444444442
 21
277.7120930860843
 31
0.0
  0
ARC
  5
F2
  8
CUTTING_LINES
 10
526.309184992859
 20
264.3471904163429
 30
0.0
 40
59.6458651551566
 50
167.0517502505679
 51
171.6661443093086
  0
LINE
  5
F3
  8
CUTTING_LINES
 10
467.2931612530604
 20
272.9923145942049
 30
0.0
 11
465.9495718425578
 21
272.7432182116087
 31
0.0
  0
ARC
  5
F4
  8
CUTTING_LINES
 10
413.5449214025969
 20
243.2765114668746
 30
0.0
 40
60.12099628345043
 50
29.34869222159843
 51
33.92657789213713
  0
LINE
  5
F5
  8
CUTTING_LINES
 10
463.4305269061942
 20
276.8318472222222
 30
0.0
 11
461.8816208342118
 21
276.5024886721971
 31
0.0
  0
ARC
  5
F6
  8
CUTTING_LINES
 10
520.7825428779579
 20
266.1754438308358
 30
0.0
 40
59.79938522057683
 50
170.0554605463019
 51
174.6580180700266
  0
LINE
  5
F7
  8
CUTTING_LINES
 10
461.2428814059033
 20
271.742775736882
 30
0.0
 11
459.914461439462
 21
271.4237638888889
 31
0.0
  0
ARC
  5
F8
  8
CUTTING_LINES
 10
408.9498710820408
 20
239.1306205699874
 30
0.0
 40
60.3343730862836
 50
32.3599344112142
 51
36.92178440588341
  0
LINE
  5
F9
  8
CUTTING_LINES
 10
457.1845666666666
 20
275.374940367348
 30
0.0
 11
455.6549521026218
 21
274.9649472222221
 31
0.0
  0
ARC
  5
FA
  8
CUTTING_LINES
 10
515.0014012502832
 20
267.7375834248379
 30
0.0
 40
59.7849129287289
 50
173.0565633624335
 51
177.6602064456156
  0
LINE
  5
FB
  8
CUTTING_LINES
 10
455.2663321124392
 20
270.1783474430695
 30
0.0
 11
453.9565035344171
 21
269.7904330084245
 31
0.0
  0
ARC
  5
FC
  8
CUTTING_LINES
 10
405.0097282021443
 20
235.0688620403643
 30
0.0
 40
60.01145145651809
 50
35.35089944378883
 51
39.93727703242574
  0
LINE
  5
FD
  8
CUTTING_LINES
 10
451.0233680529587
 20
273.5931304123603
 30
0.0
 11
449.5178536465468
 21
273.103933480274
 31
0.0
  0
ARC
  5
FE
  8
CUTTING_LINES
 10
509.0311693746142
 20
268.9934937986679
 30
0.0
 40
59.65509587055202
 50
176.0489946992801
 51
180.6627102188153
  0
LINE
  5
FF
  8
CUTTING_LINES
 10
449.3800638888889
 20
268.3035099904318
 30
0.0
 11
448.0922786825599
 21
267.8474036130651
 31
0.0
  0
ARC
  5
100
  8
CUTTING_LINES
 10
400.974664015247
 20
230.566660289535
 30
0.0
 40
60.08263837992067
 50
38.3520072206143
 51
42.93311581998559
  0
LINE
  5
101
  8
CUTTING_LINES
 10
444.9641276504725
 20
271.4915979654495
 30
0.0
 11
443.486165187809
 21
270.9238777777776
 31
0.0
  0
ARC
  5
102
  8
CUTTING_LINES
 10
503.4761715154957
 20
269.9426735012572
 30
0.0
 40
59.99803014289843
 50
179.0629463997141
 51
183.6503193018894
  0
LINE
  5
103
  8
CUTTING_LINES
 10
443.5998654627144
 20
266.1227789344106
 30
0.0
 11
442.3375913279355
 21
265.6001386698358
 31
0.0
  0
ARC
  5
104
  8
CUTTING_LINES
 10
397.3807878160791
 20
226.0467549016213
 30
0.0
 40
59.87974907695686
 50
41.34159729638211
 51
45.93794341019534
  0
LINE
  5
105
  8
CUTTING_LINES
 10
439.0233853005483
 20
269.0755641375948
 30
0.0
 11
437.576472222222
 21
268.4313213760919
 31
0.0
  0
ARC
  5
106
  8
CUTTING_LINES
 10
497.683880022556
 20
270.6069997798375
 30
0.0
 40
60.14677089414003
 50
182.0730022472205
 51
186.6488162320401
  0
LINE
  5
107
  8
CUTTING_LINES
 10
437.941627550098
 20
263.6429981637218
 30
0.0
 11
436.7082861111111
 21
263.0549176230224
 31
0.0
  0
ARC
  5
108
  8
CUTTING_LINES
 10
393.8986480322842
 20
221.2192427337581
 30
0.0
 40
59.85723687141236
 50
44.34076069145695
 51
48.93847428464549
  0
LINE
  5
109
  8
CUTTING_LINES
 10
433.217016002785
 20
266.3518777777776
 30
0.0
 11
431.8059049273216
 21
265.6332292245555
 31
0.0
  0
ARC
  5
10A
  8
CUTTING_LINES
 10
491.4217515135355
 20
270.913109503367
 30
0.0
 40
59.84919631832637
 50
185.0611980405749
 51
189.6603102562652
  0
LINE
  5
10B
  8
CUTTING_LINES
 10
432.4212199117774
 20
260.8700237893286
 30
0.0
 11
431.2202585532274
 21
260.218231583572
 31
0.0
  0
ARC
  5
10C
  8
CUTTING_LINES
 10
390.6877811889005
 20
216.2315288595464
 30
0.0
 40
59.81397610777494
 50
47.34032623747981
 51
51.9417286942355
  0
LINE
  5
10D
  8
CUTTING_LINES
 10
427.5608594790049
 20
263.3281087272321
 30
0.0
 11
426.189718124754
 21
262.5364401361203
 31
0.0
  0
ARC
  5
10E
  8
CUTTING_LINES
 10
485.572392017023
 20
270.9485340495687
 30
0.0
 40
59.97553903554549
 50
188.0628190516096
 51
192.6516288206601
  0
LINE
  5
10F
  8
CUTTING_LINES
 10
427.0530711584994
 20
257.8125388888888
 30
0.0
 11
425.888622299027
 21
257.098688329045
 31
0.0
  0
ARC
  5
110
  8
CUTTING_LINES
 10
387.5224732057383
 20
210.7963782975667
 30
0.0
 40
60.1320655765257
 50
50.35481405771904
 51
54.93174798686547
  0
LINE
  5
111
  8
CUTTING_LINES
 10
422.0714610065677
 20
260.0125621443232
 30
0.0
 11
420.7430410401264
 21
259.1502321661075
 31
0.0
  0
ARC
  5
112
  8
CUTTING_LINES
 10
479.6219976991579
 20
270.6693548585964
 30
0.0
 40
59.99518084697074
 50
191.0695716533936
 51
195.6573247521908
  0
LINE
  5
113
  8
CUTTING_LINES
 10
421.8530562898628
 20
254.4776553397023
 30
0.0
 11
420.7271660405274
 21
253.7039078592488
 31
0.0
  0
ARC
  5
114
  8
CUTTING_LINES
 10
384.86990752394
 20
205.5063774862924
 30
0.0
 40
60.07283015122095
 50
53.35205652180463
 51
57.93370403769227
  0
LINE
  5
115
  8
CUTTING_LINES
 10
416.7625833333331
 20
256.4141583463377
 30
0.0
 11
415.4810078397232
 21
255.4836364254002
 31
0.0
  0
ARC
  5
116
  8
CUTTING_LINES
 10
473.5768955146349
 20
270.0411533127145
 30
0.0
 40
59.89201501586332
 50
194.0673761580622
 51
198.6631588312616
  0
LINE
  5
117
  8
CUTTING_LINES
 10
416.8342280833158
 20
250.8754768195899
 30
0.0
 11
415.7497186662683
 21
250.0438385072655
 31
0.0
  0
ARC
  5
118
  8
CUTTING_LINES
 10
382.5360202234726
 20
200.1617249609544
 30
0.0
 40
59.92808203251659
 50
56.34258303920141
 51
60.93481070534826
  0
LINE
  5
119
  8
CUTTING_LINES
 10
411.6493473809635
 20
252.5429162219113
 30
0.0
 11
410.4187526898288
 21
251.5465659693034
 31
0.0
  0
ARC
  5
11A
  8
CUTTING_LINES
 10
467.6637583361839
 20
269.1108319564549
 30
0.0
 40
59.87899557539888
 50
197.0573840261348
 51
201.6538430686263
  0
LINE
  5
11B
  8
CUTTING_LINES
 10
412.0104154273978
 20
247.0155941393209
 30
0.0
 11
410.9713833333334
 21
246.128463883954
 31
0.0
  0
ARC
  5
11C
  8
CUTTING_LINES
 10
380.402675183716
 20
194.5522382850673
 30
0.0
 40
59.95459085811309
 50
59.34520579914146
 51
63.93559404585167
  0
LINE
  5
11D
  8
CUTTING_LINES
 10
406.7455952826205
 20
248.4094896596637
 30
0.0
 11
405.5687639234609
 21
247.3497805197676
 31
0.0
  0
ARC
  5
11E
  8
CUTTING_LINES
 10
461.9091921367058
 20
267.925916527807
 30
0.0
 40
59.98017359322274
 50
200.062742280731
 51
204.651096886091
  0
LINE
  5
11F
  8
CUTTING_LINES
 10
407.3953413773177
 20
242.9086964652921
 30
0.0
 11
406.404529735681
 21
241.9681909334957
 31
0.0
  0
ARC
  5
120
  8
CUTTING_LINES
 10
378.5061960311572
 20
188.7117831434004
 30
0.0
 40
60.12122748409165
 50
62.35223484528114
 51
66.9299069530586
  0
LINE
  5
121
  8
CUTTING_LINES
 10
402.0651162341927
 20
244.0248853259837
 30
0.0
 11
400.9454388888889
 21
242.9052392431572
 31
0.0
  0
ARC
  5
122
  8
CUTTING_LINES
 10
455.9456012696547
 20
266.3139650983154
 30
0.0
 40
59.77446200571401
 50
203.055182977382
 51
207.6597441370927
  0
LINE
  5
123
  8
CUTTING_LINES
 10
403.0021645438542
 20
238.5654729639001
 30
0.0
 11
402.0616590120578
 21
237.5746613222634
 31
0.0
  0
ARC
  5
124
  8
CUTTING_LINES
 10
377.1006301365167
 20
183.1934689759278
 30
0.0
 40
59.83616835605996
 50
65.34482347739596
 51
69.94453927531734
  0
LINE
  5
125
  8
CUTTING_LINES
 10
397.6202221798135
 20
239.4012387761202
 30
0.0
 11
396.5605130399173
 21
238.2247249169525
 31
0.0
  0
ARC
  5
126
  8
CUTTING_LINES
 10
450.6291025238476
 20
264.6833692116288
 30
0.0
 40
60.19528409015091
 50
206.0749685588308
 51
210.6473949535411
  0
LINE
  5
127
  8
CUTTING_LINES
 10
398.8418563156191
 20
233.9986277777776
 30
0.0
 11
397.9544085602602
 21
232.9595872721833
 31
0.0
  0
ARC
  5
128
  8
CUTTING_LINES
 10
375.8779681333457
 20
177.3711608632117
 30
0.0
 40
59.81172437364394
 50
68.33994643703956
 51
72.94167886251579
  0
LINE
  5
129
  8
CUTTING_LINES
 10
393.4234367302777
 20
234.5515675097443
 30
0.0
 11
392.4270864776698
 21
233.3209728186095
 31
0.0
  0
ARC
  5
12A
  8
CUTTING_LINES
 10
444.8151270886629
 20
262.4359025504448
 30
0.0
 40
59.93484739572437
 50
209.0633474447303
 51
213.655315856107
  0
LINE
  5
12B
  8
CUTTING_LINES
 10
394.9261641923156
 20
229.2202840333127
 30
0.0
 11
394.0945258799912
 21
228.136480171803
 31
0.0
  0
ARC
  5
12C
  8
CUTTING_LINES
 10
374.875052833805
 20
171.1802159997862
 30
0.0
 40
60.1115976547425
 50
71.35341090009727
 51
75.93220701527585
  0
LINE
  5
12D
  8
CUTTING_LINES
 10
389.4863662741809
 20
229.4889948598579
 30
0.0
 11
388.5561971310123
 21
228.2077805555554
 31
0.0
  0
ARC
  5
12E
  8
CUTTING_LINES
 10
439.5111893342571
 20
260.1312357358698
 30
0.0
 40
60.12917944793762
 50
212.0672669323082
 51
216.6441853368008
  0
LINE
  5
12F
  8
CUTTING_LINES
 10
391.2660948403322
 20
224.2435069368145
 30
0.0
 11
390.4923473598787
 21
223.1172991874871
 31
0.0
  0
ARC
  5
130
  8
CUTTING_LINES
 10
374.3409288416385
 20
165.5025769560372
 30
0.0
 40
59.83581317203335
 50
74.33996069772748
 51
78.93956190406507
  0
LINE
  5
131
  8
CUTTING_LINES
 10
385.8200916666667
 20
224.2269616594547
 30
0.0
 11
384.9574405552578
 21
222.8988944707823
 31
0.0
  0
ARC
  5
132
  8
CUTTING_LINES
 10
433.8969520157221
 20
257.2447630880837
 30
0.0
 40
59.78891597165683
 50
215.0612717768942
 51
219.6648785290162
  0
LINE
  5
133
  8
CUTTING_LINES
 10
387.8719846482969
 20
219.081733178323
 30
0.0
 11
387.1581777777777
 21
217.9169315410817
 31
0.0
  0
ARC
  5
134
  8
CUTTING_LINES
 10
373.9809259681134
 20
159.1892312286393
 30
0.0
 40
60.1878953714395
 50
77.35349729753068
 51
81.92683765452782
  0
LINE
  5
135
  8
CUTTING_LINES
 10
382.4335625634608
 20
218.780637352596
 30
0.0
 11
381.641893972349
 21
217.4091432205761
 31
0.0
  0
ARC
  5
136
  8
CUTTING_LINES
 10
428.8219509330309
 20
254.3574115665968
 30
0.0
 40
59.9260570084729
 50
218.0656744092198
 51
222.6586847610823
  0
LINE
  5
137
  8
CUTTING_LINES
 10
384.7521238937779
 20
213.7497441463537
 30
0.0
 11
384.1003
 21
212.5491355655725
 31
0.0
  0
ARC
  5
138
  8
CUTTING_LINES
 10
374.0361510529581
 20
153.3515323213313
 30
0.0
 40
60.04700928348428
 50
80.35143129044108
 51
84.93531138347356
  0
LINE
  5
139
  8
CUTTING_LINES
 10
379.3371262527945
 20
213.1640977722595
 30
0.0
 11
378.6184861111109
 21
211.753304196788
 31
0.0
  0
ARC
  5
13A
  8
CUTTING_LINES
 10
423.8482253918799
 20
251.1594731450003
 30
0.0
 40
59.98812771358503
 50
221.063834786517
 51
225.651720342063
  0
LINE
  5
13B
  8
CUTTING_LINES
 10
381.9154378543275
 20
208.2617249999999
 30
0.0
 11
381.3270045358593
 21
207.0283751494831
 31
0.0
  0
ARC
  5
13C
  8
CUTTING_LINES
 10
374.3747485012491
 20
147.443406461538
 30
0.0
 40
59.98918533797708
 50
83.34493331865575
 51
87.93247192684987
  0
LINE
  5
13D
  8
CUTTING_LINES
 10
376.5389988234812
 20
207.3935388888887
 30
0.0
 11
375.8947913397552
 21
205.9469348990248
 31
0.0
  0
ARC
  5
13E
  8
CUTTING_LINES
 10
418.9428065826767
 20
247.6049430983318
 30
0.0
 40
59.90426748979019
 50
224.0598733553389
 51
228.6545225161236
  0
LINE
  5
13F
  8
CUTTING_LINES
 10
379.3701815297372
 20
202.6324113716456
 30
0.0
 11
378.8472237651705
 21
201.3704900146355
 31
0.0
  0
ARC
  5
140
  8
CUTTING_LINES
 10
375.027602035215
 20
141.5056321416819
 30
0.0
 40
59.98658782018596
 50
86.34924459129509
 51
90.93748495522529
  0
LINE
  5
141
  8
CUTTING_LINES
 10
374.0461333333334
 20
201.484190289541
 30
0.0
 11
373.4790750118924
 21
200.0058750491086
 31
0.0
  0
ARC
  5
142
  8
CUTTING_LINES
 10
414.26027539143
 20
243.8252263722379
 30
0.0
 40
59.86018588992044
 50
227.0567058923985
 51
231.6541406281841
  0
LINE
  5
143
  8
CUTTING_LINES
 10
377.1225990865159
 20
196.8780767947901
 30
0.0
 11
376.6664927091492
 21
195.5903
 31
0.0
  0
ARC
  5
144
  8
CUTTING_LINES
 10
375.9861417485213
 20
135.6072514292187
 30
0.0
 40
59.98690684869769
 50
89.35015695188424
 51
93.9383387576966
  0
LINE
  5
145
  8
CUTTING_LINES
 10
371.8660692193071
 20
195.4525018308032
 30
0.0
 11
371.3768722872207
 21
193.9466346466223
 31
0.0
  0
ARC
  5
146
  8
CUTTING_LINES
 10
409.9323061723375
 20
240.0065719226215
 30
0.0
 40
60.06695683933544
 50
230.0682787401098
 51
234.6502103091166
  0
LINE
  5
147
  8
CUTTING_LINES
 10
375.1795696911565
 20
191.0138519429329
 30
0.0
 11
374.7916552565116
 21
189.7040233649108
 31
0.0
  0
ARC
  5
148
  8
CUTTING_LINES
 10
377.2597495373935
 20
129.6324867024191
 30
0.0
 40
60.12221724431335
 50
92.35272650114483
 51
96.93051993304707
  0
LINE
  5
149
  8
CUTTING_LINES
 10
370.0050638888889
 20
189.3154033747282
 30
0.0
 11
369.5950623322331
 21
187.7857972222224
 31
0.0
  0
ARC
  5
14A
  8
CUTTING_LINES
 10
405.6298568002024
 20
235.7213202743066
 30
0.0
 40
59.96933201750451
 50
233.0665462700656
 51
237.6564683651574
  0
LINE
  5
14B
  8
CUTTING_LINES
 10
373.5466000000002
 20
185.055894037888
 30
0.0
 11
373.2275797404679
 21
183.7274740714467
 31
0.0
  0
ARC
  5
14C
  8
CUTTING_LINES
 10
378.8161824628135
 20
124.0287367052577
 30
0.0
 40
59.95975086260299
 50
95.34806742614629
 51
99.93834199792842
  0
LINE
  5
14D
  8
CUTTING_LINES
 10
368.467831527376
 20
183.0887346431382
 30
0.0
 11
368.1384782023628
 21
181.5401813489246
 31
0.0
  0
ARC
  5
14E
  8
CUTTING_LINES
 10
401.5797151803562
 20
231.2336327119659
 30
0.0
 40
59.89787507908159
 50
236.0613951662234
 51
240.6565443672502
  0
LINE
  5
14F
  8
CUTTING_LINES
 10
372.2271372657412
 20
179.0207836347922
 30
0.0
 11
371.9776881053762
 21
177.6775470020585
 31
0.0
  0
ARC
  5
150
  8
CUTTING_LINES
 10
380.698794515274
 20
118.2798401396053
 30
0.0
 40
60.03453404108911
 50
98.35280815405248
 51
102.9373729646267
  0
LINE
  5
151
  8
CUTTING_LINES
 10
367.2579096134967
 20
176.7904194444444
 30
0.0
 11
367.0105771197449
 21
175.2266940084167
 31
0.0
  0
ARC
  5
152
  8
CUTTING_LINES
 10
397.7573584296183
 20
226.5109956192521
 30
0.0
 40
59.7950177910193
 50
239.0557985155741
 51
243.6587085699805
  0
LINE
  5
153
  8
CUTTING_LINES
 10
371.2252836799391
 20
172.9246805555556
 30
0.0
 11
371.0468486844467
 21
171.5700818785683
 31
0.0
  0
ARC
  5
154
  8
CUTTING_LINES
 10
382.8313714285317
 20
112.8236814684966
 30
0.0
 40
59.91673002965301
 50
101.342979059191
 51
105.9362980263205
  0
LINE
  5
155
  8
CUTTING_LINES
 10
366.3801279690047
 20
170.4376652405089
 30
0.0
 11
366.2147457509604
 21
168.8629005580685
 31
0.0
  0
ARC
  5
156
  8
CUTTING_LINES
 10
394.3244900117426
 20
221.8644195848957
 30
0.0
 40
59.99432257770482
 50
242.0604288428176
 51
246.647845444792
  0
LINE
  5
157
  8
CUTTING_LINES
 10
370.5438581415978
 20
166.7844750550184
 30
0.0
 11
370.4370723109621
 21
165.4226470338656
 31
0.0
  0
ARC
  5
158
  8
CUTTING_LINES
 10
385.3051222239827
 20
107.294639600318
 30
0.0
 40
59.9993679667597
 50
104.347569194406
 51
108.934816400745
  0
LINE
  5
159
  8
CUTTING_LINES
 10
365.8357918716447
 20
164.047342901942
 30
0.0
 11
365.7524304848616
 21
162.4660518307776
 31
0.0
  0
ARC
  5
15A
  8
CUTTING_LINES
 10
391.0452480824205
 20
216.8723743807989
 30
0.0
 40
59.99812126592246
 50
245.0668738459597
 51
249.6542869101555
  0
LINE
  5
15B
  8
CUTTING_LINES
 10
370.1848714839999
 20
160.6174257663668
 30
0.0
 11
370.14906454046
 21
159.2514349675412
 31
0.0
  0
ARC
  5
15C
  8
CUTTING_LINES
 10
388.0762682023931
 20
101.8729007524215
 30
0.0
 40
60.11389872410614
 50
107.350760254672
 51
111.928977559441
  0
LINE
  5
15D
  8
CUTTING_LINES
 10
365.6263124324921
 20
157.6374083333334
 30
0.0
 11
365.6263124324921
 21
156.0537161594335
 31
0.0
  0
ARC
  5
15E
  8
CUTTING_LINES
 10
388.0707234049769
 20
211.8026076780988
 30
0.0
 40
60.09734178365711
 50
248.0703662173743
 51
252.6498462121607
  0
LINE
  5
15F
  8
CUTTING_LINES
 10
370.14906454046
 20
154.4396873113184
 30
0.0
 11
370.1848714839999
 21
153.0740492902618
 31
0.0
  0
ARC
  5
160
  8
CUTTING_LINES
 10
391.1091325248487
 20
96.67633498433015
 30
0.0
 40
60.15419253085419
 50
110.3554869704276
 51
114.9311210173261
  0
LINE
  5
161
  8
CUTTING_LINES
 10
365.7524304848616
 20
151.2250704480821
 30
0.0
 11
365.8357918716447
 21
149.6437440991409
 31
0.0
  0
ARC
  5
162
  8
CUTTING_LINES
 10
385.3091781004647
 20
206.4115083478027
 30
0.0
 40
60.01493005085022
 50
251.0661867461591
 51
255.6522341748557
  0
LINE
  5
163
  8
CUTTING_LINES
 10
370.4370723109621
 20
148.2684752449942
 30
0.0
 11
370.5438581415978
 21
146.9066138888891
 31
0.0
  0
ARC
  5
164
  8
CUTTING_LINES
 10
394.3132095434466
 20
91.8412210827906
 30
0.0
 40
59.97649165260083
 50
113.3477712316702
 51
117.9364072318083
  0
LINE
  5
165
  8
CUTTING_LINES
 10
366.2147457509604
 20
144.8285392207832
 30
0.0
 11
366.3801279690047
 21
143.2538098161197
 31
0.0
  0
ARC
  5
166
  8
CUTTING_LINES
 10
382.8738681685568
 20
201.0245738897873
 30
0.0
 40
60.07915318499158
 50
254.0657842557083
 51
258.646758031884
  0
LINE
  5
167
  8
CUTTING_LINES
 10
371.0468486844467
 20
142.1210404002914
 30
0.0
 11
371.2252836799391
 21
140.7664443234003
 31
0.0
  0
ARC
  5
168
  8
CUTTING_LINES
 10
397.6959428187882
 20
87.29263156899209
 30
0.0
 40
59.66694600646699
 50
116.3363754433788
 51
120.9491719204724
  0
LINE
  5
169
  8
CUTTING_LINES
 10
367.0105771197449
 20
138.464428270443
 30
0.0
 11
367.2579096134967
 21
136.9007055321682
 31
0.0
  0
ARC
  5
16A
  8
CUTTING_LINES
 10
380.6940371099863
 20
195.4094128789328
 30
0.0
 40
60.03164463423658
 50
257.0666523619178
 51
261.6513761928578
  0
LINE
  5
16B
  8
CUTTING_LINES
 10
371.9776881053762
 20
136.0139280545701
 30
0.0
 11
372.2271372657412
 21
134.6706914218364
 31
0.0
  0
ARC
  5
16C
  8
CUTTING_LINES
 10
401.5797151803566
 20
82.45784234466194
 30
0.0
 40
59.89787507908244
 50
119.3434556327498
 51
123.9386048337765
  0
LINE
  5
16D
  8
CUTTING_LINES
 10
368.1384782023628
 20
132.151293707704
 30
0.0
 11
368.467831527376
 21
130.6023876357215
 31
0.0
  0
ARC
  5
16E
  8
CUTTING_LINES
 10
378.7879695051333
 20
189.4850224510125
 30
0.0
 40
59.78018008228868
 50
260.0589540455139
 51
264.6629795384389
  0
LINE
  5
16F
  8
CUTTING_LINES
 10
373.2275797404679
 20
129.9640009851819
 30
0.0
 11
373.5466000000002
 21
128.6355810187406
 31
0.0
  0
ARC
  5
170
  8
CUTTING_LINES
 10
405.7155186521648
 20
77.84610677986247
 30
0.0
 40
60.11996357875849
 50
122.3492563644791
 51
126.9276705898928
  0
LINE
  5
171
  8
CUTTING_LINES
 10
369.5950623322331
 20
125.9056808099259
 30
0.0
 11
370.0050638888889
 21
124.3760364041235
 31
0.0
  0
ARC
  5
172
  8
CUTTING_LINES
 10
377.2341939017671
 20
183.7496120462721
 30
0.0
 40
59.81205401319229
 50
263.0580252065346
 51
267.6595673832967
  0
LINE
  5
173
  8
CUTTING_LINES
 10
374.7916552565116
 20
123.9874516917178
 30
0.0
 11
375.1795696911565
 21
122.6776231136957
 31
0.0
  0
ARC
  5
174
  8
CUTTING_LINES
 10
410.0189080726553
 20
73.57872210730444
 30
0.0
 40
60.20366748708908
 50
125.358547943881
 51
129.9302950519833
  0
LINE
  5
175
  8
CUTTING_LINES
 10
371.3768722872207
 20
119.7444523544605
 30
0.0
 11
371.8660692193071
 21
118.2386204480566
 31
0.0
  0
ARC
  5
176
  8
CUTTING_LINES
 10
375.9778694513829
 20
177.9349326080871
 30
0.0
 40
59.83775218585927
 50
266.0597684740388
 51
270.6593843493505
  0
LINE
  5
177
  8
CUTTING_LINES
 10
376.6664927091492
 20
118.1011429515296
 30
0.0
 11
377.1225990865159
 21
116.8133629840616
 31
0.0
  0
ARC
  5
178
  8
CUTTING_LINES
 10
414.2665276468163
 20
69.86387278681023
 30
0.0
 40
59.8659006336203
 50
128.3491625818126
 51
132.946378321307
  0
LINE
  5
179
  8
CUTTING_LINES
 10
373.4790750118924
 20
113.6852119519743
 30
0.0
 11
374.0461333333334
 21
112.2069319893187
 31
0.0
  0
ARC
  5
17A
  8
CUTTING_LINES
 10
375.0192658404574
 20
172.3506739428787
 30
0.0
 40
60.15161413505733
 50
269.0730287321982
 51
273.6486825261161
  0
LINE
  5
17B
  8
CUTTING_LINES
 10
378.8472237651705
 20
112.3209861111112
 30
0.0
 11
379.3701815297372
 21
111.0586756294372
 31
0.0
  0
ARC
  5
17C
  8
CUTTING_LINES
 10
418.9270874483171
 20
66.09819338569868
 30
0.0
 40
59.88483755877532
 50
131.3418024287776
 51
135.9377100180359
  0
LINE
  5
17D
  8
CUTTING_LINES
 10
375.8947913397552
 20
107.7445048798269
 30
0.0
 11
376.5389988234812
 21
106.2975515830467
 31
0.0
  0
ARC
  5
17E
  8
CUTTING_LINES
 10
374.3617943536627
 20
166.4123336595067
 30
0.0
 40
60.15419555944264
 50
272.0742007731964
 51
276.6491508153161
  0
LINE
  5
17F
  8
CUTTING_LINES
 10
381.3270045358593
 20
106.6627471293766
 30
0.0
 11
381.9154378543275
 21
105.4297535494136
 31
0.0
  0
ARC
  5
180
  8
CUTTING_LINES
 10
423.7740326103567
 20
62.6064641124637
 30
0.0
 40
59.88301990673362
 50
134.3473156225684
 51
138.94353029034
  0
LINE
  5
181
  8
CUTTING_LINES
 10
378.6184861111109
 20
101.9377836111114
 30
0.0
 11
379.3371262527945
 21
100.5270252777775
 31
0.0
  0
ARC
  5
182
  8
CUTTING_LINES
 10
374.0169881037015
 20
160.4880153535874
 30
0.0
 40
60.19654641918262
 50
275.0703853453276
 51
279.6428723483816
  0
LINE
  5
183
  8
CUTTING_LINES
 10
384.1003
 20
101.1419875
 30
0.0
 11
384.7521238937779
 21
99.94169638888921
 31
0.0
  0
ARC
  5
184
  8
CUTTING_LINES
 10
428.9026812163911
 20
59.26505802498411
 30
0.0
 40
60.03216321677295
 50
137.3451174099056
 51
141.9299797179481
  0
LINE
  5
185
  8
CUTTING_LINES
 10
381.641893972349
 20
96.28233249999982
 30
0.0
 11
382.4335625634608
 21
94.9108383333334
 31
0.0
  0
ARC
  5
186
  8
CUTTING_LINES
 10
374.0369320179333
 20
154.1982668220682
 30
0.0
 40
59.87906630304891
 50
278.0609517332797
 51
282.657885862932
  0
LINE
  5
187
  8
CUTTING_LINES
 10
387.1581777777777
 20
95.77450888888922
 30
0.0
 11
387.8719846482969
 21
94.60938972222247
 31
0.0
  0
ARC
  5
188
  8
CUTTING_LINES
 10
433.8250370582768
 20
56.50127041357155
 30
0.0
 40
59.69850737695823
 50
140.3316343551398
 51
144.9422167352434
  0
LINE
  5
189
  8
CUTTING_LINES
 10
384.9574405552578
 20
90.79222833333316
 30
0.0
 11
385.8200916666667
 21
89.4644786111111
 31
0.0
  0
ARC
  5
18A
  8
CUTTING_LINES
 10
374.3117903911954
 20
148.3280746514924
 30
0.0
 40
59.97802878598301
 50
281.0622438660126
 51
285.6508628614911
  0
LINE
  5
18B
  8
CUTTING_LINES
 10
390.4923473598787
 20
90.57382361111097
 30
0.0
 11
391.2660948403322
 21
89.44793333333355
 31
0.0
  0
ARC
  5
18C
  8
CUTTING_LINES
 10
439.5186681232553
 20
53.55761775913692
 30
0.0
 40
60.13672405809353
 50
143.3580899942289
 51
147.9346807486251
  0
LINE
  5
18D
  8
CUTTING_LINES
 10
388.5561971310123
 20
85.4833461111114
 30
0.0
 11
389.4863662741809
 21
84.20244527777803
 31
0.0
  0
ARC
  5
18E
  8
CUTTING_LINES
 10
374.9231948949587
 20
142.3457163655807
 30
0.0
 40
59.93935212704848
 50
284.0616099791102
 51
288.6535805647673
  0
LINE
  5
18F
  8
CUTTING_LINES
 10
394.0945258799912
 20
85.55499527777765
 30
0.0
 11
394.9261641923156
 21
84.47115611111104
 31
0.0
  0
ARC
  5
190
  8
CUTTING_LINES
 10
444.8154174957673
 20
51.2578658571079
 30
0.0
 40
59.93379885067051
 50
146.3466907144096
 51
150.9390278096577
  0
LINE
  5
191
  8
CUTTING_LINES
 10
392.4270864776698
 20
80.37011444444438
 30
0.0
 11
393.4234367302777
 21
79.13951972222249
 31
0.0
  0
ARC
  5
192
  8
CUTTING_LINES
 10
375.8213563408773
 20
136.4810490942845
 30
0.0
 40
59.98236594835149
 50
287.0648707372873
 51
291.6535048684983
  0
LINE
  5
193
  8
CUTTING_LINES
 10
397.9544085602602
 20
80.73150000000003
 30
0.0
 11
398.8418563156191
 21
79.6928163888892
 31
0.0
  0
ARC
  5
194
  8
CUTTING_LINES
 10
450.6935033873031
 20
48.97554790714278
 30
0.0
 40
60.26727044612331
 50
149.3572110277101
 51
153.9244719073238
  0
LINE
  5
195
  8
CUTTING_LINES
 10
396.5605130399173
 20
75.466362222222
 30
0.0
 11
397.6202221798135
 21
74.28988361111095
 31
0.0
  0
ARC
  5
196
  8
CUTTING_LINES
 10
377.0956024690881
 20
130.4993738623015
 30
0.0
 40
59.83950875941895
 50
290.05941784436
 51
294.6590053416533
  0
LINE
  5
197
  8
CUTTING_LINES
 10
402.0616590120578
 20
76.11681388888887
 30
0.0
 11
403.0021645438542
 21
75.12564944444425
 31
0.0
  0
ARC
  5
198
  8
CUTTING_LINES
 10
455.8253633615051
 20
47.43414170378867
 30
0.0
 40
59.64151183764434
 50
152.3351214622097
 51
156.9499525436209
  0
LINE
  5
199
  8
CUTTING_LINES
 10
400.9454388888889
 20
70.78588305555536
 30
0.0
 11
402.0651162341927
 21
69.6662030777775
 31
0.0
  0
ARC
  5
19A
  8
CUTTING_LINES
 10
378.4413571198965
 20
125.1152281539957
 30
0.0
 40
60.27168801845001
 50
293.0761686493677
 51
297.6424209470226
  0
LINE
  5
19B
  8
CUTTING_LINES
 10
406.404529735681
 20
71.72293138888915
 30
0.0
 11
407.3953413773177
 21
70.78277861111106
 31
0.0
  0
ARC
  5
19C
  8
CUTTING_LINES
 10
461.9173687419414
 20
45.76383069494361
 30
0.0
 40
59.98832572076569
 50
155.3506605336999
 51
159.938703237304
  0
LINE
  5
19D
  8
CUTTING_LINES
 10
405.5687639234609
 20
66.34134166666695
 30
0.0
 11
406.7455952826205
 21
65.28198527777761
 31
0.0
  0
ARC
  5
19E
  8
CUTTING_LINES
 10
380.4719746128047
 20
119.0116481468386
 30
0.0
 40
59.80952946750481
 50
296.0584744527134
 51
300.6599861192229
  0
LINE
  5
19F
  8
CUTTING_LINES
 10
410.9713833333334
 20
67.56297583333314
 30
0.0
 11
412.0104154273978
 21
66.67588083333362
 31
0.0
  0
ARC
  5
1A0
  8
CUTTING_LINES
 10
467.6645917065869
 20
44.58048746435605
 30
0.0
 40
59.87982753352681
 50
158.3463128375382
 51
162.9427399600972
  0
LINE
  5
1A1
  8
CUTTING_LINES
 10
410.4187526898288
 20
62.14487361111121
 30
0.0
 11
411.6493473809635
 21
61.14820583333303
 31
0.0
  0
ARC
  5
1A2
  8
CUTTING_LINES
 10
382.4570222772056
 20
113.6519532188027
 30
0.0
 40
60.07358266726492
 50
299.0742607286928
 51
303.6555351863117
  0
LINE
  5
1A3
  8
CUTTING_LINES
 10
415.7497186662683
 20
63.64763638888892
 30
0.0
 11
416.8342280833158
 21
62.81564527777746
 31
0.0
  0
ARC
  5
1A4
  8
CUTTING_LINES
 10
473.5284589004296
 20
43.66307946216739
 30
0.0
 40
59.84192999281903
 50
161.3338935231257
 51
165.9332004910695
  0
LINE
  5
1A5
  8
CUTTING_LINES
 10
415.4810078397232
 20
58.20783833333309
 30
0.0
 11
416.7625833333331
 21
57.27696361111104
 31
0.0
  0
ARC
  5
1A6
  8
CUTTING_LINES
 10
384.8794998406401
 20
108.1644405825072
 30
0.0
 40
60.05053143408811
 50
302.0688248536188
 51
306.6523647462867
  0
LINE
  5
1A7
  8
CUTTING_LINES
 10
420.7271660405274
 20
59.98756694444448
 30
0.0
 11
421.8530562898628
 21
59.21343138888881
 31
0.0
  0
ARC
  5
1A8
  8
CUTTING_LINES
 10
479.6145766192484
 20
43.0234951093541
 30
0.0
 40
59.98755927271434
 50
164.3423839196185
 51
168.9307203257544
  0
LINE
  5
1A9
  8
CUTTING_LINES
 10
420.7430410401264
 20
54.54085444444434
 30
0.0
 11
422.0714610065677
 21
53.6785597222224
 31
0.0
  0
ARC
  5
1AA
  8
CUTTING_LINES
 10
387.427719657152
 20
103.0138109843768
 30
0.0
 40
60.2839599875881
 50
305.0769412070853
 51
309.6425200526947
  0
LINE
  5
1AB
  8
CUTTING_LINES
 10
425.888622299027
 20
56.59275111111089
 30
0.0
 11
427.0530711584994
 21
55.87894055555532
 31
0.0
  0
ARC
  5
1AC
  8
CUTTING_LINES
 10
485.6050240704368
 20
42.73699013957312
 30
0.0
 40
60.00868312617658
 50
167.3496472532525
 51
171.9359257411111
  0
LINE
  5
1AD
  8
CUTTING_LINES
 10
426.189718124754
 20
51.15503444444464
 30
0.0
 11
427.5608594790049
 21
50.36301305555571
 31
0.0
  0
ARC
  5
1AE
  8
CUTTING_LINES
 10
390.6877803690729
 20
97.45959277673954
 30
0.0
 40
59.81397649781472
 50
308.0582720106179
 51
312.6596744861245
  0
LINE
  5
1AF
  8
CUTTING_LINES
 10
431.2202585532274
 20
53.47289027777776
 30
0.0
 11
432.4212199117774
 21
52.82106277777767
 31
0.0
  0
ARC
  5
1B0
  8
CUTTING_LINES
 10
491.4142535721428
 20
42.77851566696919
 30
0.0
 40
59.84171432141469
 50
170.3389934459977
 51
174.9383123302183
  0
LINE
  5
1B1
  8
CUTTING_LINES
 10
431.8059049273216
 20
48.05824527777798
 30
0.0
 11
433.217016002785
 21
47.33924888888919
 31
0.0
  0
ARC
  5
1B2
  8
CUTTING_LINES
 10
393.8858645209104
 20
92.48145303653216
 30
0.0
 40
59.87284920727963
 50
311.0647345653459
 51
315.6614541976215
  0
LINE
  5
1B3
  8
CUTTING_LINES
 10
436.7082861111111
 20
50.6365216666666
 30
0.0
 11
437.941627550098
 21
50.04847638888876
 31
0.0
  0
ARC
  5
1B4
  8
CUTTING_LINES
 10
497.693571799722
 20
43.08391208859329
 30
0.0
 40
60.15646264120852
 50
173.3517202309716
 51
177.9271655599184
  0
LINE
  5
1B5
  8
CUTTING_LINES
 10
437.576472222222
 20
45.25976499999979
 30
0.0
 11
439.0233853005483
 21
44.61555749999971
 31
0.0
  0
ARC
  5
1B6
  8
CUTTING_LINES
 10
397.2082650482694
 20
87.80928861080315
 30
0.0
 40
60.11823923723096
 50
314.0709007479218
 51
318.6489790550846
  0
LINE
  5
1B7
  8
CUTTING_LINES
 10
442.3375913279355
 20
48.09094777777772
 30
0.0
 11
443.5998654627144
 21
47.56834277777752
 31
0.0
  0
ARC
  5
1B8
  8
CUTTING_LINES
 10
503.4686799166986
 20
43.74862664072329
 30
0.0
 40
59.99054238372291
 50
176.3493952248049
 51
180.9373362746893
  0
LINE
  5
1B9
  8
CUTTING_LINES
 10
443.486165187809
 20
42.76724888888885
 30
0.0
 11
444.9641276504725
 21
42.19984111111138
 31
0.0
  0
ARC
  5
1BA
  8
CUTTING_LINES
 10
401.0638040017892
 20
83.04790055061738
 30
0.0
 40
59.96500960087109
 50
317.0626505792786
 51
321.6527760582507
  0
LINE
  5
1BB
  8
CUTTING_LINES
 10
448.0922786825599
 20
45.84407083333332
 30
0.0
 11
449.3800638888889
 21
45.38792916666677
 31
0.0
  0
ARC
  5
1BC
  8
CUTTING_LINES
 10
509.026083556285
 20
44.69782947914206
 30
0.0
 40
59.65001173295875
 50
179.3371219807368
 51
183.9511971703707
  0
LINE
  5
1BD
  8
CUTTING_LINES
 10
449.5178536465468
 20
40.58754083333316
 30
0.0
 11
451.0233680529587
 21
40.09799111111117
 31
0.0
  0
ARC
  5
1BE
  8
CUTTING_LINES
 10
404.9385501776861
 20
78.67393445524584
 30
0.0
 40
60.09920002368533
 50
320.0685107483597
 51
324.648454966983
  0
LINE
  5
1BF
  8
CUTTING_LINES
 10
453.9565035344171
 20
43.90104138888908
 30
0.0
 11
455.2663321124392
 21
43.51277416666694
 31
0.0
  0
ARC
  5
1C0
  8
CUTTING_LINES
 10
515.0165070869939
 20
45.95471897652003
 30
0.0
 40
59.80005438078025
 50
182.3403330732137
 51
186.9428387642698
  0
LINE
  5
1C1
  8
CUTTING_LINES
 10
455.6549521026218
 20
38.72614416666691
 30
0.0
 11
457.1845666666666
 21
38.31653388888873
 31
0.0
  0
ARC
  5
1C2
  8
CUTTING_LINES
 10
409.0362747522651
 20
74.50399267965878
 30
0.0
 40
60.23113968710954
 50
323.0720828952562
 51
327.6414835859042
  0
LINE
  5
1C3
  8
CUTTING_LINES
 10
459.914461439462
 20
42.26736277777793
 30
0.0
 11
461.2428814059033
 21
41.94834583333345
 31
0.0
  0
ARC
  5
1C4
  8
CUTTING_LINES
 10
520.785578549653
 20
47.51600831266688
 30
0.0
 40
59.80243848402903
 50
185.3420264962488
 51
189.9443825462229
  0
LINE
  5
1C5
  8
CUTTING_LINES
 10
461.8816208342118
 20
37.1885974999999
 30
0.0
 11
463.4305269061942
 21
36.85959694444431
 31
0.0
  0
ARC
  5
1C6
  8
CUTTING_LINES
 10
413.5603851395539
 20
70.40772991367669
 30
0.0
 40
60.10414516109599
 50
326.0708918874279
 51
330.6497996755179
  0
LINE
  5
1C7
  8
CUTTING_LINES
 10
465.9495718425578
 20
40.94790333333341
 30
0.0
 11
467.2931612530604
 21
40.69915972222194
 31
0.0
  0
ARC
  5
1C8
  8
CUTTING_LINES
 10
526.2500157450346
 20
49.33316645321649
 30
0.0
 40
59.58570939259415
 50
188.3315248400566
 51
192.950580074714
  0
LINE
  5
1C9
  8
CUTTING_LINES
 10
468.1799444444442
 20
35.97938111111095
 30
0.0
 11
469.7433086911644
 21
35.7313430555558
 31
0.0
  0
ARC
  5
1CA
  8
CUTTING_LINES
 10
418.362479778332
 20
66.530952686667
 30
0.0
 40
59.9049708555024
 50
329.0599355672172
 51
333.6543965878436
  0
LINE
  5
1CB
  8
CUTTING_LINES
 10
472.0453305555554
 20
39.94604972222201
 30
0.0
 11
473.3999208210128
 21
39.7679675000002
 31
0.0
  0
ARC
  5
1CC
  8
CUTTING_LINES
 10
532.1938432523018
 20
51.56713555150696
 30
0.0
 40
59.96620449523319
 50
191.3477683759156
 51
195.9377031369751
  0
LINE
  5
1CD
  8
CUTTING_LINES
 10
474.5326902368411
 20
35.10089388888865
 30
0.0
 11
476.1071021415125
 21
34.93551166666687
 31
0.0
  0
ARC
  5
1CE
  8
CUTTING_LINES
 10
423.1658899739621
 20
63.01840126091355
 30
0.0
 40
59.92846263447977
 50
332.0560962860788
 51
336.6489929273309
  0
LINE
  5
1CF
  8
CUTTING_LINES
 10
478.1858451445546
 20
39.26497694444434
 30
0.0
 11
479.5473556657155
 21
39.15783833333309
 31
0.0
  0
ARC
  5
1D0
  8
CUTTING_LINES
 10
537.716172564638
 20
54.0380855385196
 30
0.0
 40
60.04192715351353
 50
194.3491953886683
 51
198.9331894121919
  0
LINE
  5
1D1
  8
CUTTING_LINES
 10
480.9226597976391
 20
34.55655777777766
 30
0.0
 11
482.5039508688035
 21
34.47386666666677
 31
0.0
  0
ARC
  5
1D2
  8
CUTTING_LINES
 10
427.9908389568815
 20
59.82169199609163
 30
0.0
 40
60.11814717082322
 50
335.0622392495766
 51
339.6404683635943
  0
LINE
  5
1D3
  8
CUTTING_LINES
 10
484.353282488752
 20
38.90599027777796
 30
0.0
 11
485.7189205098087
 21
38.87014805555575
 31
0.0
  0
ARC
  5
1D4
  8
CUTTING_LINES
 10
543.0527214427859
 20
56.77557021518048
 30
0.0
 40
60.06470571089681
 50
197.3436537010185
 51
201.9257976629151
  0
LINE
  5
1D5
  8
CUTTING_LINES
 10
487.3326027777779
 20
34.34707833333365
 30
0.0
 11
488.9166393179164
 21
34.34707833333365
 31
0.0
  0
ARC
  5
1D6
  8
CUTTING_LINES
 10
433.193962794679
 20
56.77640421102473
 30
0.0
 40
60.06738997360399
 50
338.0743754117271
 51
342.6563125117403
  0
LINE
  5
1D7
  8
CUTTING_LINES
 10
490.5303153882626
 20
38.87014805555575
 30
0.0
 11
491.8959534093192
 21
38.90599027777796
 31
0.0
  0
ARC
  5
1D8
  8
CUTTING_LINES
 10
548.2583969412206
 20
59.82169199610516
 30
0.0
 40
60.11814717085681
 50
200.3595316364075
 51
204.9377607504227
  0
LINE
  5
1D9
  8
CUTTING_LINES
 10
493.7452850292678
 20
34.47386666666677
 30
0.0
 11
495.3265761004322
 21
34.55655777777766
 31
0.0
  0
ARC
  5
1DA
  8
CUTTING_LINES
 10
438.5330633334001
 20
54.03808553853025
 30
0.0
 40
60.04192715354845
 50
341.0668105878088
 51
345.6508046113297
  0
LINE
  5
1DB
  8
CUTTING_LINES
 10
496.7018802323558
 20
39.15783833333309
 30
0.0
 11
498.0633972222222
 21
39.26497694444434
 31
0.0
  0
ARC
  5
1DC
  8
CUTTING_LINES
 10
553.0808631500527
 20
63.01712698322484
 30
0.0
 40
59.92567219969023
 50
203.3508318524619
 51
207.9439397970935
  0
LINE
  5
1DD
  8
CUTTING_LINES
 10
500.1421337565587
 20
34.93551166666687
 30
0.0
 11
501.7165456612302
 21
35.10089388888865
 31
0.0
  0
ARC
  5
1DE
  8
CUTTING_LINES
 10
444.0553926457025
 20
51.56713555152326
 30
0.0
 40
59.9662044953021
 50
344.0622968630275
 51
348.6522316240818
  0
LINE
  5
1DF
  8
CUTTING_LINES
 10
502.8493150770585
 20
39.7679675000002
 30
0.0
 11
504.2039111539495
 21
39.94604972222201
 31
0.0
  0
ARC
  5
1E0
  8
CUTTING_LINES
 10
557.884639713376
 20
66.5297227135897
 30
0.0
 40
59.90252322217152
 50
206.3454499802217
 51
210.9400961658203
  0
LINE
  5
1E1
  8
CUTTING_LINES
 10
506.505927206907
 20
35.7313430555558
 30
0.0
 11
508.0692971674127
 21
35.97938111111095
 31
0.0
  0
ARC
  5
1E2
  8
CUTTING_LINES
 10
449.9966877423556
 20
49.33357195630353
 30
0.0
 40
59.58827383441364
 50
347.0495868771166
 51
351.6684422030074
  0
LINE
  5
1E3
  8
CUTTING_LINES
 10
508.9560746450109
 20
40.69915972222194
 30
0.0
 11
510.2996640555136
 21
40.94790333333341
 31
0.0
  0
ARC
  5
1E4
  8
CUTTING_LINES
 10
562.6888507584379
 20
70.40772991362832
 30
0.0
 40
60.10414516100291
 50
209.350200324479
 51
213.9291081125762
  0
LINE
  5
1E5
  8
CUTTING_LINES
 10
512.8187089918772
 20
36.85959694444431
 30
0.0
 11
514.3676150638595
 21
37.1885974999999
 31
0.0
  0
ARC
  5
1E6
  8
CUTTING_LINES
 10
455.466803327609
 20
47.51558613468342
 30
0.0
 40
59.79926686381787
 50
350.055495338737
 51
354.6580956187925
  0
LINE
  5
1E7
  8
CUTTING_LINES
 10
515.0063544921679
 20
41.94834583333345
 30
0.0
 11
516.3347744586092
 21
42.26736277777793
 31
0.0
  0
ARC
  5
1E8
  8
CUTTING_LINES
 10
567.2112599075472
 20
74.50288342492536
 30
0.0
 40
60.22910893437378
 50
212.3584912275269
 51
216.9280490089935
  0
LINE
  5
1E9
  8
CUTTING_LINES
 10
519.064674667424
 20
38.31653388888873
 30
0.0
 11
520.5942837954497
 21
38.72614416666691
 31
0.0
  0
ARC
  5
1EA
  8
CUTTING_LINES
 10
461.2384710564542
 20
45.954252771415
 30
0.0
 40
59.79429788791515
 50
353.0569395712063
 51
357.6598885913101
  0
LINE
  5
1EB
  8
CUTTING_LINES
 10
520.9829037856323
 20
43.51277416666694
 30
0.0
 11
522.2927323636543
 21
43.90104138888908
 31
0.0
  0
ARC
  5
1EC
  8
CUTTING_LINES
 10
571.3107249038495
 20
78.6740513777936
 30
0.0
 40
60.09929963285004
 50
215.3516143348725
 51
219.9315551277311
  0
LINE
  5
1ED
  8
CUTTING_LINES
 10
525.2258749999996
 20
40.09799111111117
 30
0.0
 11
526.7313822515246
 21
40.58754083333316
 31
0.0
  0
ARC
  5
1EE
  8
CUTTING_LINES
 10
467.2240582538132
 20
44.69786856912143
 30
0.0
 40
59.64911066783971
 50
356.0487054104411
 51
0.6628504829293622
  0
LINE
  5
1EF
  8
CUTTING_LINES
 10
526.8691772480436
 20
45.38792916666677
 30
0.0
 11
528.1569572155115
 21
45.84407083333332
 31
0.0
  0
ARC
  5
1F0
  8
CUTTING_LINES
 10
575.1893443970847
 20
83.05125898144053
 30
0.0
 40
59.97016169634746
 50
218.3474212183521
 51
222.9371521441198
  0
LINE
  5
1F1
  8
CUTTING_LINES
 10
531.2851082475989
 20
42.19984111111138
 30
0.0
 11
532.7630707102625
 21
42.76724888888885
 31
0.0
  0
ARC
  5
1F2
  8
CUTTING_LINES
 10
472.7771277008933
 20
43.74863701561007
 30
0.0
 40
59.99397037518478
 50
359.0627073788748
 51
3.650385972404787
  0
LINE
  5
1F3
  8
CUTTING_LINES
 10
532.649377777778
 20
47.56834277777752
 30
0.0
 11
533.9116445701359
 21
48.09094777777772
 31
0.0
  0
ARC
  5
1F4
  8
CUTTING_LINES
 10
579.0440386292573
 20
87.81221411048773
 30
0.0
 40
60.12247493726372
 50
221.3511822962971
 51
225.9289379006964
  0
LINE
  5
1F5
  8
CUTTING_LINES
 10
537.225850597523
 20
44.61555749999971
 30
0.0
 11
538.6727686165266
 21
45.25976499999979
 31
0.0
  0
ARC
  5
1F6
  8
CUTTING_LINES
 10
478.5556625169563
 20
43.08384994313388
 30
0.0
 40
60.15647140683778
 50
2.072893366849242
 51
6.648338386812475
  0
LINE
  5
1F7
  8
CUTTING_LINES
 10
538.3076083479732
 20
50.04847638888876
 30
0.0
 11
539.5409547057054
 21
50.6365216666666
 31
0.0
  0
ARC
  5
1F8
  8
CUTTING_LINES
 10
582.3639203352479
 20
92.4819704112864
 30
0.0
 40
59.87359990803613
 50
224.3385360519857
 51
228.9351945944281
  0
LINE
  5
1F9
  8
CUTTING_LINES
 10
543.0322198952863
 20
47.33924888888919
 30
0.0
 11
544.4433309707498
 21
48.05824527777798
 31
0.0
  0
ARC
  5
1FA
  8
CUTTING_LINES
 10
484.8371822357221
 20
42.77879987635863
 30
0.0
 40
59.83949791541375
 50
5.061602446509625
 51
9.661091777277079
  0
LINE
  5
1FB
  8
CUTTING_LINES
 10
543.8280159862938
 20
52.82106277777767
 30
0.0
 11
545.0289773448438
 21
53.47289027777776
 31
0.0
  0
ARC
  5
1FC
  8
CUTTING_LINES
 10
585.5614555290449
 20
97.4595927767949
 30
0.0
 40
59.81397649788698
 50
227.3403255138787
 51
231.9417279893797
  0
LINE
  5
1FD
  8
CUTTING_LINES
 10
548.6883764190663
 20
50.36301305555571
 30
0.0
 11
550.0595177733175
 21
51.15503444444464
 31
0.0
  0
ARC
  5
1FE
  8
CUTTING_LINES
 10
490.6442118277028
 20
42.73699013958417
 30
0.0
 40
60.00868312610756
 50
8.064074258887569
 51
12.65035274675148
  0
LINE
  5
1FF
  8
CUTTING_LINES
 10
549.1961647395719
 20
55.87894055555532
 30
0.0
 11
550.3606135990442
 21
56.59275111111089
 31
0.0
  0
ARC
  5
200
  8
CUTTING_LINES
 10
588.8223191359912
 20
103.0148626586096
 30
0.0
 40
60.28528206236766
 50
230.3575300360856
 51
234.9230087041354
  0
LINE
  5
201
  8
CUTTING_LINES
 10
554.1777748915035
 20
53.6785597222224
 30
0.0
 11
555.5062027777778
 21
54.54085444444434
 31
0.0
  0
ARC
  5
202
  8
CUTTING_LINES
 10
496.6331408740662
 20
43.02303461030988
 30
0.0
 40
59.98914561526813
 50
11.06943142464237
 51
15.65764818243787
  0
LINE
  5
203
  8
CUTTING_LINES
 10
554.3961796082085
 20
59.21343138888881
 30
0.0
 11
555.5220777777778
 21
59.98756694444448
 31
0.0
  0
ARC
  5
204
  8
CUTTING_LINES
 10
591.367879790099
 20
108.161672755563
 30
0.0
 40
60.04719804126899
 50
233.3474857419679
 51
237.9312774526249
  0
LINE
  5
205
  8
CUTTING_LINES
 10
559.4866569796122
 20
57.27696361111104
 30
0.0
 11
560.7682361111109
 21
58.20783833333309
 31
0.0
  0
ARC
  5
206
  8
CUTTING_LINES
 10
502.7191896252564
 20
43.66251183430387
 30
0.0
 40
59.84361553984066
 50
14.06695540990058
 51
18.66613493904982
  0
LINE
  5
207
  8
CUTTING_LINES
 10
559.4150078147557
 20
62.81564527777746
 30
0.0
 11
560.499517231803
 21
63.64763638888892
 31
0.0
  0
ARC
  5
208
  8
CUTTING_LINES
 10
593.7922136208572
 20
113.6519532187892
 30
0.0
 40
60.07358266724896
 50
236.3444648136879
 51
240.9257392713082
  0
LINE
  5
209
  8
CUTTING_LINES
 10
564.5998885171078
 20
61.14820583333303
 30
0.0
 11
565.8304832082424
 21
62.14487361111121
 31
0.0
  0
ARC
  5
20A
  8
CUTTING_LINES
 10
508.5846441915804
 20
44.58048746439189
 30
0.0
 40
59.87982753342441
 50
17.05726003989697
 51
21.65368716246373
  0
LINE
  5
20B
  8
CUTTING_LINES
 10
564.2388204706735
 20
66.67588083333362
 30
0.0
 11
565.2778568333142
 21
67.56297583333314
 31
0.0
  0
ARC
  5
20C
  8
CUTTING_LINES
 10
595.776793160677
 20
119.0107238193198
 30
0.0
 40
59.80849345979316
 50
239.3399516144482
 51
243.9415394302161
  0
LINE
  5
20D
  8
CUTTING_LINES
 10
569.5036406154509
 20
65.28198527777761
 30
0.0
 11
570.6804719746106
 21
66.34134166666695
 31
0.0
  0
ARC
  5
20E
  8
CUTTING_LINES
 10
514.3286025674759
 20
45.76258947336686
 30
0.0
 40
59.99181800472476
 50
20.06134076760874
 51
24.64911324438173
  0
LINE
  5
20F
  8
CUTTING_LINES
 10
568.8539027777775
 20
70.78277861111106
 30
0.0
 11
569.8447061623904
 21
71.72293138888915
 31
0.0
  0
ARC
  5
210
  8
CUTTING_LINES
 10
597.8085995714081
 20
125.1167489284571
 30
0.0
 40
60.2733696257276
 50
242.3576427851848
 51
246.9237676184258
  0
LINE
  5
211
  8
CUTTING_LINES
 10
574.1841196638787
 20
69.6662030777775
 30
0.0
 11
575.303801024482
 21
70.78588305555536
 31
0.0
  0
ARC
  5
212
  8
CUTTING_LINES
 10
520.4223388093271
 20
47.43336405324933
 30
0.0
 40
59.64323128927991
 50
23.0501564751308
 51
27.66485609711878
  0
LINE
  5
213
  8
CUTTING_LINES
 10
573.247071354217
 20
75.12564944444425
 30
0.0
 11
574.1875768860135
 21
76.11681388888887
 31
0.0
  0
ARC
  5
214
  8
CUTTING_LINES
 10
599.153102027098
 20
130.4981775102273
 30
0.0
 40
59.83819979650421
 50
245.340979149879
 51
249.9406748539268
  0
LINE
  5
215
  8
CUTTING_LINES
 10
578.6290222222221
 20
74.28988361111095
 30
0.0
 11
579.688722858154
 21
75.466362222222
 31
0.0
  0
ARC
  5
216
  8
CUTTING_LINES
 10
525.5557325107965
 20
48.97554790715589
 30
0.0
 40
60.26727044609223
 50
26.07552809267681
 51
30.64278897229294
  0
LINE
  5
217
  8
CUTTING_LINES
 10
577.4073795824521
 20
79.6928163888892
 30
0.0
 11
578.2948273378112
 21
80.73150000000003
 31
0.0
  0
ARC
  5
218
  8
CUTTING_LINES
 10
600.4278795571851
 20
136.4810490942603
 30
0.0
 40
59.98236594832575
 50
248.3464951315011
 51
252.9351292627142
  0
LINE
  5
219
  8
CUTTING_LINES
 10
582.8257991677938
 20
79.13951972222249
 30
0.0
 11
583.8221494204014
 21
80.37011444444438
 31
0.0
  0
ARC
  5
21A
  8
CUTTING_LINES
 10
531.4338184023583
 20
51.25786585714383
 30
0.0
 40
59.93379885060551
 50
29.06097219033751
 51
33.65330928559055
  0
LINE
  5
21B
  8
CUTTING_LINES
 10
581.3230717057559
 20
84.47115611111104
 30
0.0
 11
582.1547100180801
 21
85.55499527777765
 31
0.0
  0
ARC
  5
21C
  8
CUTTING_LINES
 10
601.3260410031123
 20
142.3457163655781
 30
0.0
 40
59.93935212704586
 50
251.3464194352322
 51
255.9383900208894
  0
LINE
  5
21D
  8
CUTTING_LINES
 10
586.7628696238903
 20
84.20244527777803
 30
0.0
 11
587.6930387670591
 21
85.4833461111114
 31
0.0
  0
ARC
  5
21E
  8
CUTTING_LINES
 10
536.7317612789482
 20
53.55843355002207
 30
0.0
 40
60.13527953916434
 50
32.06526425462834
 51
36.64196500251546
  0
LINE
  5
21F
  8
CUTTING_LINES
 10
584.9831410577392
 20
89.44793333333355
 30
0.0
 11
585.7568972222223
 21
90.57382361111097
 31
0.0
  0
ARC
  5
220
  8
CUTTING_LINES
 10
601.9371299995078
 20
148.3266568509547
 30
0.0
 40
59.97657609397474
 50
254.3490699661528
 51
258.9377954636424
  0
LINE
  5
221
  8
CUTTING_LINES
 10
590.4291478646057
 20
89.4644786111111
 30
0.0
 11
591.2917953428135
 21
90.79222833333316
 31
0.0
  0
ARC
  5
222
  8
CUTTING_LINES
 10
542.4252698993616
 20
56.50208820721809
 30
0.0
 40
59.69716089383262
 50
35.05773124030964
 51
39.66841766930842
  0
LINE
  5
223
  8
CUTTING_LINES
 10
588.3772512497744
 20
94.60938972222247
 30
0.0
 11
589.0910617872976
 21
95.77450888888922
 31
0.0
  0
ARC
  5
224
  8
CUTTING_LINES
 10
602.2122423619285
 20
154.1978745830444
 30
0.0
 40
59.87866931307888
 50
257.3420927511061
 51
261.9390539199524
  0
LINE
  5
225
  8
CUTTING_LINES
 10
593.8156733346106
 20
94.9108383333334
 30
0.0
 11
594.6073419257223
 21
96.28233249999982
 31
0.0
  0
ARC
  5
226
  8
CUTTING_LINES
 10
547.3465546817212
 20
59.26505802502044
 30
0.0
 40
60.03216321671824
 50
38.07002028204882
 51
42.65488259009543
  0
LINE
  5
227
  8
CUTTING_LINES
 10
591.4971120042934
 20
99.94169638888921
 30
0.0
 11
592.1489394878269
 21
101.1419875
 31
0.0
  0
ARC
  5
228
  8
CUTTING_LINES
 10
602.232234587096
 20
160.4879317618005
 30
0.0
 40
60.19646119485496
 50
260.3571300859159
 51
264.9296286449402
  0
LINE
  5
229
  8
CUTTING_LINES
 10
596.9121186111113
 20
100.5270252777775
 30
0.0
 11
597.6307622222221
 21
101.9377836111114
 31
0.0
  0
ARC
  5
22A
  8
CUTTING_LINES
 10
552.4764763092445
 20
62.60750523977504
 30
0.0
 40
59.88138553071173
 50
41.05651073918647
 51
45.65285909623983
  0
LINE
  5
22B
  8
CUTTING_LINES
 10
594.3337980437439
 20
105.4297535494136
 30
0.0
 11
594.9222402777775
 21
106.6627471293766
 31
0.0
  0
ARC
  5
22C
  8
CUTTING_LINES
 10
601.8874506346872
 20
166.4123366712409
 30
0.0
 40
60.15419857114923
 50
263.3508493515478
 51
267.9257992794599
  0
LINE
  5
22D
  8
CUTTING_LINES
 10
599.710246111111
 20
106.2975515830467
 30
0.0
 11
600.354453611111
 21
107.7445048798269
 31
0.0
  0
ARC
  5
22E
  8
CUTTING_LINES
 10
557.3221574092754
 20
66.09819223998039
 30
0.0
 40
59.88483842257868
 50
44.06229070760299
 51
48.65819829137189
  0
LINE
  5
22F
  8
CUTTING_LINES
 10
596.8790633333329
 20
111.0586756294372
 30
0.0
 11
597.402021111111
 21
112.3209861111112
 31
0.0
  0
ARC
  5
230
  8
CUTTING_LINES
 10
601.2299809072284
 20
172.3507232231006
 30
0.0
 40
60.15166343448248
 50
266.3513186821656
 51
270.926972018565
  0
LINE
  5
231
  8
CUTTING_LINES
 10
602.2031149999998
 20
112.2069319893187
 30
0.0
 11
602.77017
 21
113.6852119519743
 31
0.0
  0
ARC
  5
232
  8
CUTTING_LINES
 10
561.9827171701038
 20
69.86387146678638
 30
0.0
 40
59.86590173270402
 50
47.05362240284194
 51
51.65083812478175
  0
LINE
  5
233
  8
CUTTING_LINES
 10
599.1266458333332
 20
116.8133629840616
 30
0.0
 11
599.5827522222221
 21
118.1011429515296
 31
0.0
  0
ARC
  5
234
  8
CUTTING_LINES
 10
600.2713754974208
 20
177.9349356264068
 30
0.0
 40
59.83775520417972
 50
269.3406156672185
 51
273.9402314265562
  0
LINE
  5
235
  8
CUTTING_LINES
 10
604.3831758333331
 20
118.2386204480566
 30
0.0
 11
604.8723727777781
 21
119.7444523544605
 31
0.0
  0
ARC
  5
236
  8
CUTTING_LINES
 10
566.2303367083293
 20
73.57872059807261
 30
0.0
 40
60.20366882670307
 50
50.06970566266553
 51
54.64145274143505
  0
LINE
  5
237
  8
CUTTING_LINES
 10
601.0696752777781
 20
122.6776231136957
 30
0.0
 11
601.4575897222221
 21
123.9874516917178
 31
0.0
  0
ARC
  5
238
  8
CUTTING_LINES
 10
599.0150395368458
 20
183.749816605843
 30
0.0
 40
59.81225887338774
 50
272.3404356599573
 51
276.9419652732223
  0
LINE
  5
239
  8
CUTTING_LINES
 10
606.2441844444442
 20
124.3760364041235
 30
0.0
 11
606.6541827777778
 21
125.9056808099259
 31
0.0
  0
ARC
  5
23A
  8
CUTTING_LINES
 10
570.5332427646922
 20
77.8454446167042
 30
0.0
 40
60.1207835143321
 50
53.07234005537709
 51
57.65068927708852
  0
LINE
  5
23B
  8
CUTTING_LINES
 10
602.7026483333334
 20
128.6355810187406
 30
0.0
 11
603.0216652777781
 21
129.9640009851819
 31
0.0
  0
ARC
  5
23C
  8
CUTTING_LINES
 10
597.4612753795734
 20
189.4850253904768
 30
0.0
 40
59.78018302143089
 50
275.3370203269474
 51
279.9410457077028
  0
LINE
  5
23D
  8
CUTTING_LINES
 10
607.7814136111108
 20
130.6023876357215
 30
0.0
 11
608.1107669444443
 21
132.151293707704
 31
0.0
  0
ARC
  5
23E
  8
CUTTING_LINES
 10
574.6695295578941
 20
82.45784047825845
 30
0.0
 40
59.89787685561733
 50
56.06139583874835
 51
60.65654498759448
  0
LINE
  5
23F
  8
CUTTING_LINES
 10
604.022107777778
 20
134.6706914218364
 30
0.0
 11
604.2715569444443
 21
136.0139280545701
 31
0.0
  0
ARC
  5
240
  8
CUTTING_LINES
 10
595.5552077385182
 20
195.4094157569735
 30
0.0
 40
60.03164751100874
 50
278.348623598412
 51
282.9333473214612
  0
LINE
  5
241
  8
CUTTING_LINES
 10
608.9913355555557
 20
136.9007055321682
 30
0.0
 11
609.2386680555555
 21
138.464428270443
 31
0.0
  0
ARC
  5
242
  8
CUTTING_LINES
 10
578.5533019128134
 20
87.29262953231695
 30
0.0
 40
59.66694798135253
 50
59.05082871991481
 51
63.66362513405165
  0
LINE
  5
243
  8
CUTTING_LINES
 10
605.0239613888888
 20
140.7664443234003
 30
0.0
 11
605.2023963888889
 21
142.1210404002914
 31
0.0
  0
ARC
  5
244
  8
CUTTING_LINES
 10
593.3753766455508
 20
201.0245766742968
 30
0.0
 40
60.07915596604516
 50
281.3532416877409
 51
285.9342153610951
  0
LINE
  5
245
  8
CUTTING_LINES
 10
609.8691172222219
 20
143.2538098161197
 30
0.0
 11
610.0344994444444
 21
144.8285392207832
 31
0.0
  0
ARC
  5
246
  8
CUTTING_LINES
 10
581.9360351871809
 20
91.84121886364287
 30
0.0
 40
59.97649383089118
 50
62.06359336911179
 51
66.65222929676689
  0
LINE
  5
247
  8
CUTTING_LINES
 10
605.7053869444442
 20
146.9066138888891
 30
0.0
 11
605.8121727777775
 21
148.2684752449942
 31
0.0
  0
ARC
  5
248
  8
CUTTING_LINES
 10
590.9400666834684
 20
206.4115110135009
 30
0.0
 40
60.01493270893699
 50
284.3477654764157
 51
288.9338128082951
  0
LINE
  5
249
  8
CUTTING_LINES
 10
610.4134533333331
 20
149.6437440991409
 30
0.0
 11
610.4968147222221
 21
151.2250704480821
 31
0.0
  0
ARC
  5
24A
  8
CUTTING_LINES
 10
585.1401122146076
 20
96.6763325961612
 30
0.0
 40
60.1541948936003
 50
65.06887953761795
 51
69.6445135032079
  0
LINE
  5
24B
  8
CUTTING_LINES
 10
606.0643736111113
 20
153.0740492902618
 30
0.0
 11
606.1001805555553
 21
154.4396873113184
 31
0.0
  0
ARC
  5
24C
  8
CUTTING_LINES
 10
588.1785213532069
 20
211.8026102135588
 30
0.0
 40
60.09734430449893
 50
287.3501533744138
 51
291.9296332796804
  0
LINE
  5
24D
  8
CUTTING_LINES
 10
610.6229327777778
 20
156.0537161594335
 30
0.0
 11
610.6229327777778
 21
157.6374083333334
 31
0.0
  0
ARC
  5
24E
  8
CUTTING_LINES
 10
588.1729765556811
 20
101.8728982162584
 30
0.0
 40
60.1139012456472
 50
68.07102294349161
 51
72.64924015876524
  0
LINE
  5
24F
  8
CUTTING_LINES
 10
606.1001805555553
 20
159.2514349675412
 30
0.0
 11
606.0643736111113
 21
160.6174257663668
 31
0.0
  0
ARC
  5
250
  8
CUTTING_LINES
 10
585.2039966581143
 20
216.8723767629686
 30
0.0
 40
59.99812362275342
 50
290.345712616388
 51
294.9331255990551
  0
LINE
  5
251
  8
CUTTING_LINES
 10
610.4968147222221
 20
162.4660518307776
 30
0.0
 11
610.4134533333331
 21
164.047342901942
 31
0.0
  0
ARC
  5
252
  8
CUTTING_LINES
 10
590.9441225600391
 20
107.2946369353276
 30
0.0
 40
59.99937062414005
 50
71.06518404482155
 51
75.65243115431882
  0
LINE
  5
253
  8
CUTTING_LINES
 10
605.8121727777775
 20
165.4226470338656
 30
0.0
 11
605.7053869444442
 21
166.7844750550184
 31
0.0
  0
ARC
  5
254
  8
CUTTING_LINES
 10
581.9247547187757
 20
221.8644218044898
 30
0.0
 40
59.99432475640596
 50
293.3521540266956
 51
297.9395705562183
  0
LINE
  5
255
  8
CUTTING_LINES
 10
610.0344994444444
 20
168.8629005580685
 30
0.0
 11
609.8691172222219
 21
170.4376652405089
 31
0.0
  0
ARC
  5
256
  8
CUTTING_LINES
 10
593.4178733865067
 20
112.82367869138
 30
0.0
 40
59.91673280332768
 50
74.0637023569264
 51
78.65702122095004
  0
LINE
  5
257
  8
CUTTING_LINES
 10
605.2023963888889
 20
171.5700818785683
 30
0.0
 11
605.0239613888888
 21
172.9246805555556
 31
0.0
  0
ARC
  5
258
  8
CUTTING_LINES
 10
578.4918863011445
 20
226.5109976603061
 30
0.0
 40
59.79501977014957
 50
296.341290852522
 51
300.9442008441064
  0
LINE
  5
259
  8
CUTTING_LINES
 10
609.2386680555555
 20
175.2266940084167
 30
0.0
 11
608.9913355555557
 21
176.7904194444444
 31
0.0
  0
ARC
  5
25A
  8
CUTTING_LINES
 10
595.5504503331324
 20
118.2798372615387
 30
0.0
 40
60.03453691788511
 50
77.06262735208624
 51
81.64719205477908
  0
LINE
  5
25B
  8
CUTTING_LINES
 10
604.2715569444443
 20
177.6775470020585
 30
0.0
 11
604.022107777778
 21
179.0207836347922
 31
0.0
  0
ARC
  5
25C
  8
CUTTING_LINES
 10
574.6695295578945
 20
231.2336345783694
 30
0.0
 40
59.89787685561649
 50
299.3434550124055
 51
303.9386041612517
  0
LINE
  5
25D
  8
CUTTING_LINES
 10
608.1107669444443
 20
181.5401813489246
 30
0.0
 11
607.7814136111108
 21
183.0887346431382
 31
0.0
  0
ARC
  5
25E
  8
CUTTING_LINES
 10
597.4330624212137
 20
124.0287337570417
 30
0.0
 40
59.95975381049499
 50
80.06165824878683
 51
84.65193270873873
  0
LINE
  5
25F
  8
CUTTING_LINES
 10
603.0216652777781
 20
183.7274740714467
 30
0.0
 11
602.7026483333334
 21
185.055894037888
 31
0.0
  0
ARC
  5
260
  8
CUTTING_LINES
 10
570.6189070717703
 20
235.7219789841084
 30
0.0
 40
59.97014771631427
 50
302.3435859915029
 51
306.9334430864535
  0
LINE
  5
261
  8
CUTTING_LINES
 10
606.6541827777778
 20
187.7857972222224
 30
0.0
 11
606.2441844444442
 21
189.3154033747282
 31
0.0
  0
ARC
  5
262
  8
CUTTING_LINES
 10
598.9894837790664
 20
129.6322804362731
 30
0.0
 40
60.12242381533676
 50
83.06948957973493
 51
87.64727046364253
  0
LINE
  5
263
  8
CUTTING_LINES
 10
601.4575897222221
 20
189.7040233649108
 30
0.0
 11
601.0696752777781
 21
191.0138519429329
 31
0.0
  0
ARC
  5
264
  8
CUTTING_LINES
 10
566.3169386090863
 20
240.0065734286469
 30
0.0
 40
60.0669581761902
 50
305.3497890056309
 51
309.931720545225
  0
LINE
  5
265
  8
CUTTING_LINES
 10
604.8723727777781
 20
193.9466346466223
 30
0.0
 11
604.3831758333331
 21
195.4525018308032
 31
0.0
  0
ARC
  5
266
  8
CUTTING_LINES
 10
600.2631032000739
 20
135.6072484033871
 30
0.0
 40
59.98690987452999
 50
86.06166134166028
 51
90.64984303178757
  0
LINE
  5
267
  8
CUTTING_LINES
 10
599.5827522222221
 20
195.5903
 30
0.0
 11
599.1266458333332
 21
196.8780767947901
 31
0.0
  0
ARC
  5
268
  8
CUTTING_LINES
 10
561.9889694254058
 20
243.825227692325
 30
0.0
 40
59.86018698914862
 50
308.3458586652404
 51
312.9432933834578
  0
LINE
  5
269
  8
CUTTING_LINES
 10
602.77017
 20
200.0058750491086
 30
0.0
 11
602.2031149999998
 21
201.484190289541
 31
0.0
  0
ARC
  5
26A
  8
CUTTING_LINES
 10
601.2216447167743
 20
141.5055827798371
 30
0.0
 40
59.98663720129642
 50
89.06251430597217
 51
93.65075419453356
  0
LINE
  5
26B
  8
CUTTING_LINES
 10
597.402021111111
 20
201.3704900146355
 30
0.0
 11
596.8790633333329
 21
202.6324113716456
 31
0.0
  0
ARC
  5
26C
  8
CUTTING_LINES
 10
557.3064382750076
 20
247.6049442442483
 30
0.0
 40
59.90426835363338
 50
311.3454767637163
 51
315.9401259190254
  0
LINE
  5
26D
  8
CUTTING_LINES
 10
600.354453611111
 20
205.9469348990248
 30
0.0
 11
599.710246111111
 21
207.3935388888887
 31
0.0
  0
ARC
  5
26E
  8
CUTTING_LINES
 10
601.8744964867776
 20
147.4434034580696
 30
0.0
 40
59.98918834141804
 50
92.0675280206602
 51
96.65506651433269
  0
LINE
  5
26F
  8
CUTTING_LINES
 10
594.9222402777775
 20
207.0283751494831
 30
0.0
 11
594.3337980437439
 21
208.2617249999999
 31
0.0
  0
ARC
  5
270
  8
CUTTING_LINES
 10
552.4022879634285
 20
251.1584279769466
 30
0.0
 40
59.98648734430088
 50
314.3481049396628
 51
318.9361241820377
  0
LINE
  5
271
  8
CUTTING_LINES
 10
597.6307622222221
 20
211.753304196788
 30
0.0
 11
596.9121186111113
 21
213.1640977722595
 31
0.0
  0
ARC
  5
272
  8
CUTTING_LINES
 10
602.2130717554908
 20
153.3516151693799
 30
0.0
 40
60.04692481183923
 50
95.06467463250632
 51
99.64856626901438
  0
LINE
  5
273
  8
CUTTING_LINES
 10
592.1489394878269
 20
212.5491355655725
 30
0.0
 11
591.4971120042934
 21
213.7497441463537
 31
0.0
  0
ARC
  5
274
  8
CUTTING_LINES
 10
547.4272849650824
 20
254.3574115665596
 30
0.0
 40
59.92605700841683
 50
317.3413152389165
 51
321.9343255907834
  0
LINE
  5
275
  8
CUTTING_LINES
 10
594.6073419257223
 20
217.4091432205761
 30
0.0
 11
593.8156733346106
 21
218.780637352596
 31
0.0
  0
ARC
  5
276
  8
CUTTING_LINES
 10
602.2682477920962
 20
159.1896270790333
 30
0.0
 40
60.18749471761716
 50
98.07315670055674
 51
102.6465240807151
  0
LINE
  5
277
  8
CUTTING_LINES
 10
589.0910617872976
 20
217.9169315410817
 30
0.0
 11
588.3772512497744
 21
219.081733178323
 31
0.0
  0
ARC
  5
278
  8
CUTTING_LINES
 10
542.3533581910523
 20
257.2439428135807
 30
0.0
 40
59.7875654005584
 50
320.3350694464077
 51
324.9387802476808
  0
LINE
  5
279
  8
CUTTING_LINES
 10
591.2917953428135
 20
222.8988944707823
 30
0.0
 11
590.4291478646057
 21
224.2269616594547
 31
0.0
  0
ARC
  5
27A
  8
CUTTING_LINES
 10
601.9079928826274
 20
165.5039886033296
 30
0.0
 40
59.83436677611083
 50
101.0603987518455
 51
105.6601064961799
  0
LINE
  5
27B
  8
CUTTING_LINES
 10
585.7568972222223
 20
223.1172991874871
 30
0.0
 11
584.9831410577392
 21
224.2435069368145
 31
0.0
  0
ARC
  5
27C
  8
CUTTING_LINES
 10
536.7392398369817
 20
260.1304200383325
 30
0.0
 40
60.12773517233216
 50
323.355759664878
 51
327.9327880660151
  0
LINE
  5
27D
  8
CUTTING_LINES
 10
587.6930387670591
 20
228.2077805555554
 30
0.0
 11
586.7628696238903
 21
229.4889948598579
 31
0.0
  0
ARC
  5
27E
  8
CUTTING_LINES
 10
601.3741830642666
 20
171.1802159997862
 30
0.0
 40
60.1115976547426
 50
104.0677929847245
 51
108.646589099903
  0
LINE
  5
27F
  8
CUTTING_LINES
 10
582.1547100180801
 20
228.136480171803
 30
0.0
 11
581.3230717057559
 21
229.2202840333127
 31
0.0
  0
ARC
  5
280
  8
CUTTING_LINES
 10
531.4341088094609
 20
262.43590255041
 30
0.0
 40
59.93484739566149
 50
326.344684143893
 51
330.9366525552744
  0
LINE
  5
281
  8
CUTTING_LINES
 10
583.8221494204014
 20
233.3209728186095
 30
0.0
 11
582.8257991677938
 21
234.5515675097443
 31
0.0
  0
ARC
  5
282
  8
CUTTING_LINES
 10
600.3712677647181
 20
177.3711608632314
 30
0.0
 40
59.81172437362287
 50
107.0583211374828
 51
111.6600535629609
  0
LINE
  5
283
  8
CUTTING_LINES
 10
578.2948273378112
 20
232.9595872721833
 30
0.0
 11
577.4073795824521
 21
233.9986277777776
 31
0.0
  0
ARC
  5
284
  8
CUTTING_LINES
 10
525.6201333742499
 20
264.6833692116169
 30
0.0
 40
60.19528409012224
 50
329.3526050464559
 51
333.9250314411684
  0
LINE
  5
285
  8
CUTTING_LINES
 10
579.688722858154
 20
238.2247249169525
 30
0.0
 11
578.6290222222221
 21
239.4012387761202
 31
0.0
  0
ARC
  5
286
  8
CUTTING_LINES
 10
599.1480745756843
 20
183.1946650572436
 30
0.0
 40
59.83485972825225
 50
110.0553680400488
 51
114.6551920280125
  0
LINE
  5
287
  8
CUTTING_LINES
 10
574.1875768860135
 20
237.5746613222634
 30
0.0
 11
573.247071354217
 21
238.5654729639001
 31
0.0
  0
ARC
  5
288
  8
CUTTING_LINES
 10
520.3020938922685
 20
266.3147461818293
 30
0.0
 40
59.77618926102198
 50
332.3402783101558
 51
336.944707997288
  0
LINE
  5
289
  8
CUTTING_LINES
 10
575.303801024482
 20
242.9052392431572
 30
0.0
 11
574.1841196638787
 21
244.0248853259837
 31
0.0
  0
ARC
  5
28A
  8
CUTTING_LINES
 10
597.7437570480288
 20
188.7102699650574
 30
0.0
 40
60.12290068018897
 50
113.0701567782296
 51
117.6477014234302
  0
LINE
  5
28B
  8
CUTTING_LINES
 10
569.8447061623904
 20
241.9681909334957
 30
0.0
 11
568.8539027777775
 21
242.9086964652921
 31
0.0
  0
ARC
  5
28C
  8
CUTTING_LINES
 10
514.336779699948
 20
267.9271576463673
 30
0.0
 40
59.98366534776094
 50
335.3491293482727
 51
339.9372137122001
  0
LINE
  5
28D
  8
CUTTING_LINES
 10
570.6804719746106
 20
247.3497805197676
 30
0.0
 11
569.5036406154509
 21
248.4094896596637
 31
0.0
  0
ARC
  5
28E
  8
CUTTING_LINES
 10
595.8460903348227
 20
194.5531669054603
 30
0.0
 40
59.95355000183527
 50
116.0643920740772
 51
120.6548564647392
  0
LINE
  5
28F
  8
CUTTING_LINES
 10
565.2778568333142
 20
246.128463883954
 30
0.0
 11
564.2388204706735
 21
247.0155941393209
 31
0.0
  0
ARC
  5
290
  8
CUTTING_LINES
 10
508.5854775619832
 20
269.1108319564191
 30
0.0
 40
59.87899557529665
 50
338.3461569313718
 51
342.9426159738711
  0
LINE
  5
291
  8
CUTTING_LINES
 10
565.8304832082424
 20
251.5465659693034
 30
0.0
 11
564.5998885171078
 21
252.5429162219113
 31
0.0
  0
ARC
  5
292
  8
CUTTING_LINES
 10
593.7132156745911
 20
200.1617249609666
 30
0.0
 40
59.92808203250226
 50
119.065189294651
 51
123.657416960799
  0
LINE
  5
293
  8
CUTTING_LINES
 10
560.499517231803
 20
250.0438385072655
 30
0.0
 11
559.4150078147557
 21
250.8754768195899
 31
0.0
  0
ARC
  5
294
  8
CUTTING_LINES
 10
502.670750355122
 20
270.0417217617186
 30
0.0
 40
59.8937033403918
 50
341.3368127162368
 51
345.9324679431627
  0
LINE
  5
295
  8
CUTTING_LINES
 10
560.7682361111109
 20
255.4836364254002
 30
0.0
 11
559.4866569796122
 21
256.4141583463377
 31
0.0
  0
ARC
  5
296
  8
CUTTING_LINES
 10
591.3774708987164
 20
205.5091474531796
 30
0.0
 40
60.06949430830486
 50
122.0661936608423
 51
126.648092982932
  0
LINE
  5
297
  8
CUTTING_LINES
 10
555.5220777777778
 20
253.7039078592488
 30
0.0
 11
554.3961796082085
 21
254.4776553397023
 31
0.0
  0
ARC
  5
298
  8
CUTTING_LINES
 10
496.6257193596289
 20
270.6698154734577
 30
0.0
 40
59.99676763901444
 50
344.3426431476215
 51
348.9302765943365
  0
LINE
  5
299
  8
CUTTING_LINES
 10
555.5062027777778
 20
259.1502321661075
 30
0.0
 11
554.1777748915035
 21
260.0125621443232
 31
0.0
  0
ARC
  5
29A
  8
CUTTING_LINES
 10
588.727561497443
 20
210.7953318665467
 30
0.0
 40
60.13338100199953
 50
125.0683021002811
 51
129.6451358551334
  0
LINE
  5
29B
  8
CUTTING_LINES
 10
550.3606135990442
 20
257.098688329045
 30
0.0
 11
549.1961647395719
 21
257.8125388888888
 31
0.0
  0
ARC
  5
29C
  8
CUTTING_LINES
 10
490.6768438811177
 20
270.9485340495574
 30
0.0
 40
59.97553903547531
 50
347.3483711793359
 51
351.9371809483917
  0
LINE
  5
29D
  8
CUTTING_LINES
 10
550.0595177733175
 20
262.5364401361203
 30
0.0
 11
548.6883764190663
 21
263.3281087272321
 31
0.0
  0
ARC
  5
29E
  8
CUTTING_LINES
 10
585.5614547092162
 20
216.2315288594922
 30
0.0
 40
59.81397610784555
 50
128.0582713057668
 51
132.6596737625171
  0
LINE
  5
29F
  8
CUTTING_LINES
 10
545.0289773448438
 20
260.218231583572
 30
0.0
 11
543.8280159862938
 21
260.8700237893286
 31
0.0
  0
ARC
  5
2A0
  8
CUTTING_LINES
 10
484.8296844978423
 20
270.9128252908347
 30
0.0
 40
59.84697971008957
 50
350.3396045271725
 51
354.9388871759849
  0
LINE
  5
2A1
  8
CUTTING_LINES
 10
544.4433309707498
 20
265.6332292245555
 30
0.0
 11
543.0322198952863
 21
266.3518777777776
 31
0.0
  0
ARC
  5
2A2
  8
CUTTING_LINES
 10
582.351136526622
 20
221.2187256056445
 30
0.0
 40
59.85798718679782
 50
131.0615965548411
 51
135.6592490592387
  0
LINE
  5
2A3
  8
CUTTING_LINES
 10
539.5409547057054
 20
263.0549176230224
 30
0.0
 11
538.3076083479732
 21
263.6429981637218
 31
0.0
  0
ARC
  5
2A4
  8
CUTTING_LINES
 10
478.5653542936373
 20
270.6070619203717
 30
0.0
 40
60.14677966025693
 50
353.3511251455222
 51
357.9269388212466
  0
LINE
  5
2A5
  8
CUTTING_LINES
 10
538.6727686165266
 20
268.4313213760919
 30
0.0
 11
537.225850597523
 21
269.0755641375948
 31
0.0
  0
ARC
  5
2A6
  8
CUTTING_LINES
 10
578.871491546617
 20
226.0438526184628
 30
0.0
 40
59.88395115827484
 50
134.0622179400775
 51
138.658241353345
  0
LINE
  5
2A7
  8
CUTTING_LINES
 10
533.9116445701359
 20
265.6001386698358
 30
0.0
 11
532.649377777778
 21
266.1227789344106
 31
0.0
  0
ARC
  5
2A8
  8
CUTTING_LINES
 10
472.7696357266857
 20
269.942663123814
 30
0.0
 40
60.00145850998791
 50
356.3498994825446
 51
0.9370099648976109
  0
LINE
  5
2A9
  8
CUTTING_LINES
 10
532.7630707102625
 20
270.9238777777776
 30
0.0
 11
531.2851082475989
 21
271.4915979654495
 31
0.0
  0
ARC
  5
2AA
  8
CUTTING_LINES
 10
575.2784997730087
 20
230.5632886159774
 30
0.0
 40
60.08781077817761
 50
137.067081457529
 51
141.64779550187
  0
LINE
  5
2AB
  8
CUTTING_LINES
 10
528.1569572155115
 20
267.8474036130651
 30
0.0
 11
526.8691772480436
 21
268.3035099904318
 31
0.0
  0
ARC
  5
2AC
  8
CUTTING_LINES
 10
467.2189724166062
 20
268.9934547028827
 30
0.0
 40
59.65419482432623
 50
359.337317323492
 51
3.951102713020941
  0
LINE
  5
2AD
  8
CUTTING_LINES
 10
526.7313822515246
 20
273.103933480274
 30
0.0
 11
525.2258749999996
 21
273.5931304123603
 31
0.0
  0
ARC
  5
2AE
  8
CUTTING_LINES
 10
571.2395467466516
 20
235.0687453432765
 30
0.0
 40
60.01155082615085
 50
140.0626570884586
 51
144.6490312541945
  0
LINE
  5
2AF
  8
CUTTING_LINES
 10
522.2927323636543
 20
269.7904330084245
 30
0.0
 11
520.9829037856323
 21
270.1783474430695
 31
0.0
  0
ARC
  5
2B0
  8
CUTTING_LINES
 10
461.2535740550501
 20
267.7380494024623
 30
0.0
 40
59.77915928307787
 50
2.339571888566374
 51
6.943658303384526
  0
LINE
  5
2B1
  8
CUTTING_LINES
 10
520.5942837954497
 20
274.9649472222221
 30
0.0
 11
519.064674667424
 21
275.374940367348
 31
0.0
  0
ARC
  5
2B2
  8
CUTTING_LINES
 10
567.2976578829653
 20
239.1317335428527
 30
0.0
 40
60.33233553239781
 50
143.078083696025
 51
147.6400907725177
  0
LINE
  5
2B3
  8
CUTTING_LINES
 10
516.3347744586092
 20
271.4237638888889
 30
0.0
 11
515.0063544921679
 21
271.742775736882
 31
0.0
  0
ARC
  5
2B4
  8
CUTTING_LINES
 10
455.469838723004
 20
266.1758659748804
 30
0.0
 40
59.79621387872459
 50
5.341859814063998
 51
9.944661569606124
  0
LINE
  5
2B5
  8
CUTTING_LINES
 10
514.3676150638595
 20
276.5024886721971
 30
0.0
 11
512.8187089918772
 21
276.8318472222222
 31
0.0
  0
ARC
  5
2B6
  8
CUTTING_LINES
 10
562.7043144953984
 20
243.2765114669207
 30
0.0
 40
60.12099628336144
 50
146.0734221078589
 51
150.6513077784044
  0
LINE
  5
2B7
  8
CUTTING_LINES
 10
510.2996640555136
 20
272.7432182116087
 30
0.0
 11
508.9560746450109
 21
272.9923145942049
 31
0.0
  0
ARC
  5
2B8
  8
CUTTING_LINES
 10
449.9375137238466
 20
264.3467840885342
 30
0.0
 40
59.64843443821196
 50
8.333888633811341
 51
12.94808281141442
  0
LINE
  5
2B9
  8
CUTTING_LINES
 10
508.0692971674127
 20
277.7120930860843
 30
0.0
 11
506.505927206907
 21
277.959778357605
 31
0.0
  0
ARC
  5
2BA
  8
CUTTING_LINES
 10
557.810251059604
 20
247.2022178640265
 30
0.0
 40
59.81773293513019
 50
149.0568047565447
 51
153.6579925088177
  0
LINE
  5
2BB
  8
CUTTING_LINES
 10
504.2039111539495
 20
273.7450416666667
 30
0.0
 11
502.8493150770585
 21
273.9231540151343
 31
0.0
  0
ARC
  5
2BC
  8
CUTTING_LINES
 10
444.0931759179312
 20
262.1331561200043
 30
0.0
 40
59.92735551694151
 50
11.34628021198528
 51
15.93919196443722
  0
LINE
  5
2BD
  8
CUTTING_LINES
 10
501.7165456612302
 20
278.5902275083453
 30
0.0
 11
500.1421337565587
 21
278.7556097263896
 31
0.0
  0
ARC
  5
2BE
  8
CUTTING_LINES
 10
553.0166706724361
 20
250.7048149951605
 30
0.0
 40
59.85452145930196
 50
152.0533282420169
 51
156.6518989789087
  0
LINE
  5
2BF
  8
CUTTING_LINES
 10
498.0633972222222
 20
274.4261445579833
 30
0.0
 11
496.7018802323558
 21
274.5332831663878
 31
0.0
  0
ARC
  5
2C0
  8
CUTTING_LINES
 10
438.5738727987878
 20
259.665233253361
 30
0.0
 40
59.99936796678109
 50
14.34756919440698
 51
18.9348164007444
  0
LINE
  5
2C1
  8
CUTTING_LINES
 10
495.3265761004322
 20
279.1345636057053
 30
0.0
 11
493.7452850292678
 21
279.2175722147194
 31
0.0
  0
ARC
  5
2C2
  8
CUTTING_LINES
 10
548.3188377837597
 20
253.8460270391896
 30
0.0
 40
60.18295410530506
 50
155.066024057098
 51
159.6395996506619
  0
CIRCLE
  5
2C3
  8
CUTTING_LINES
 10
419.3746337135842
 20
275.924091881253
 30
0.0
 40
3.263882278706176
  0
CIRCLE
  5
2C4
  8
CUTTING_LINES
 10
625.6249312499999
 20
156.8457198069729
 30
0.0
 40
3.263882361159082
  0
CIRCLE
  5
2C5
  8
CUTTING_LINES
 10
419.3746337135842
 20
37.76738244356443
 30
0.0
 40
3.263882278705732
  0
LINE
  5
2C6
  8
CUTTING_LINES
 10
335.2030183158376
 20
36.5101051319142
 30
0.0
 11
360.3005107373772
 21
36.5101051319142
 31
0.0
  0
LINE
  5
2C7
  8
CUTTING_LINES
 10
360.3005107373772
 20
36.5101051319142
 30
0.0
 11
360.3005107373772
 21
33.71028570141914
 31
0.0
  0
LINE
  5
2C8
  8
CUTTING_LINES
 10
360.3005107373772
 20
33.71028570141914
 30
0.0
 11
359.2504677083479
 21
33.71028570141914
 31
0.0
  0
LINE
  5
2C9
  8
CUTTING_LINES
 10
359.2504677083479
 20
33.71028570141914
 30
0.0
 11
359.2504677083479
 21
31.31009026327764
 31
0.0
  0
LINE
  5
2CA
  8
CUTTING_LINES
 10
359.2504677083479
 20
31.31009026327764
 30
0.0
 11
360.3005107373772
 21
31.31009026327764
 31
0.0
  0
LINE
  5
2CB
  8
CUTTING_LINES
 10
360.3005107373772
 20
31.31009026327764
 30
0.0
 11
360.3005107373772
 21
28.51023422289683
 31
0.0
  0
LINE
  5
2CC
  8
CUTTING_LINES
 10
360.3005107373772
 20
28.51023422289683
 30
0.0
 11
363.7001595403837
 21
28.51023422289683
 31
0.0
  0
LINE
  5
2CD
  8
CUTTING_LINES
 10
363.7001595403837
 20
31.31009026327764
 30
0.0
 11
363.7001595403837
 21
28.51023422289683
 31
0.0
  0
LINE
  5
2CE
  8
CUTTING_LINES
 10
364.7502088356753
 20
31.31009026327764
 30
0.0
 11
363.7001595403837
 21
31.31009026327764
 31
0.0
  0
LINE
  5
2CF
  8
CUTTING_LINES
 10
364.7502088356753
 20
33.71028570141914
 30
0.0
 11
364.7502088356753
 21
31.31009026327764
 31
0.0
  0
LINE
  5
2D0
  8
CUTTING_LINES
 10
363.7001595403837
 20
33.71028570141914
 30
0.0
 11
364.7502088356753
 21
33.71028570141914
 31
0.0
  0
LINE
  5
2D1
  8
CUTTING_LINES
 10
363.7001595403837
 20
36.5101051319142
 30
0.0
 11
363.7001595403837
 21
33.71028570141914
 31
0.0
  0
LINE
  5
2D2
  8
CUTTING_LINES
 10
363.7001595403837
 20
36.5101051319142
 30
0.0
 11
388.7969816841625
 21
36.5101051319142
 31
0.0
  0
LINE
  5
2D3
  8
CUTTING_LINES
 10
388.7969816841625
 20
3.489894868085798
 30
0.0
 11
388.7969816841625
 21
36.5101051319142
 31
0.0
  0
LINE
  5
2D4
  8
CUTTING_LINES
 10
363.7001595403837
 20
3.489894868085798
 30
0.0
 11
388.7969816841625
 21
3.489894868085798
 31
0.0
  0
LINE
  5
2D5
  8
CUTTING_LINES
 10
363.7001595403837
 20
3.489894868085798
 30
0.0
 11
363.7001595403837
 21
6.290068479196918
 31
0.0
  0
LINE
  5
2D6
  8
CUTTING_LINES
 10
363.7001595403837
 20
6.290068479196918
 30
0.0
 11
364.7502088356753
 21
6.290068479196918
 31
0.0
  0
LINE
  5
2D7
  8
CUTTING_LINES
 10
364.7502088356753
 20
6.290068479196918
 30
0.0
 11
364.7502088356753
 21
8.689909868085863
 31
0.0
  0
LINE
  5
2D8
  8
CUTTING_LINES
 10
364.7502088356753
 20
8.689909868085863
 30
0.0
 11
363.7001595403837
 21
8.689909868085863
 31
0.0
  0
LINE
  5
2D9
  8
CUTTING_LINES
 10
363.7001595403837
 20
8.689909868085863
 30
0.0
 11
363.7001595403837
 21
11.49008347919698
 31
0.0
  0
LINE
  5
2DA
  8
CUTTING_LINES
 10
360.3005107373772
 20
11.49008347919698
 30
0.0
 11
363.7001595403837
 21
11.49008347919698
 31
0.0
  0
LINE
  5
2DB
  8
CUTTING_LINES
 10
360.3005107373772
 20
8.689909868085863
 30
0.0
 11
360.3005107373772
 21
11.49008347919698
 31
0.0
  0
LINE
  5
2DC
  8
CUTTING_LINES
 10
359.2504677083479
 20
8.689909868085863
 30
0.0
 11
360.3005107373772
 21
8.689909868085863
 31
0.0
  0
LINE
  5
2DD
  8
CUTTING_LINES
 10
359.2504677083479
 20
6.290068479196918
 30
0.0
 11
359.2504677083479
 21
8.689909868085863
 31
0.0
  0
LINE
  5
2DE
  8
CUTTING_LINES
 10
360.3005107373772
 20
6.290068479196918
 30
0.0
 11
359.2504677083479
 21
6.290068479196918
 31
0.0
  0
LINE
  5
2DF
  8
CUTTING_LINES
 10
360.3005107373772
 20
3.489894868085798
 30
0.0
 11
360.3005107373772
 21
6.290068479196918
 31
0.0
  0
LINE
  5
2E0
  8
CUTTING_LINES
 10
335.2030183158376
 20
3.489894868085798
 30
0.0
 11
360.3005107373772
 21
3.489894868085798
 31
0.0
  0
LINE
  5
2E1
  8
CUTTING_LINES
 10
335.2030183158376
 20
3.489894868085798
 30
0.0
 11
335.2030183158376
 21
36.5101051319142
 31
0.0
  0
ENDSEC
  0
EOF
